<svg width="280" height="630" viewBox="0 0 280 630" fill="none" xmlns="http://www.w3.org/2000/svg">
<path d="M28.2815 595.319V83.0435C28.2815 75.3368 29.1769 67.6561 30.9496 60.156L37.5809 32.1006C41.3521 16.1455 55.0506 4.48987 71.4036 3.3218L102.846 1.07593H176.646L207.253 3.2847C223.714 4.47262 237.464 16.283 241.122 32.3766L247.526 60.5552C249.17 67.7904 250 75.1868 250 82.6065V595.319C250 601.549 245.038 606.647 238.81 606.815L139.154 609.5H139.127L39.4718 606.815C33.2434 606.647 28.2815 601.55 28.2815 595.319Z" fill="white" stroke="black"/>
<path d="M225.061 22L234.758 117.5L239 214M53.5455 21L42.6364 117.5L39 214" stroke="black"/>
<path fill-rule="evenodd" clip-rule="evenodd" d="M14.7428 104.226C7.96981 102.533 1.26279 107.216 0.519042 114.158L0.33154 115.908C0.154792 117.557 1.60449 118.918 3.23972 118.638L21.7013 115.473L31.7519 118.345C33.349 118.801 34.9387 117.602 34.9387 115.941V112.166C34.9387 111.09 34.2502 110.135 33.2293 109.795L22.2292 106.128V106.098L21.8686 106.008L21.2293 105.795V105.848L14.7428 104.226ZM1.51335 114.264C2.19243 107.926 8.31622 103.65 14.5002 105.196L21.2292 106.879V114.54L3.07076 117.653C2.08962 117.821 1.2198 117.004 1.32585 116.014L1.51335 114.264ZM22.2293 114.584V107.182L32.9131 110.743C33.5256 110.947 33.9387 111.521 33.9387 112.166V115.941C33.9387 116.938 32.9849 117.657 32.0267 117.383L22.2293 114.584Z" fill="black"/>
<path fill-rule="evenodd" clip-rule="evenodd" d="M265.096 108.099C272.07 107.774 277.722 113.687 277.083 120.639L276.922 122.392C276.77 124.044 275.081 125.092 273.533 124.495L256.057 117.753L245.638 118.588C243.982 118.72 242.66 117.231 242.987 115.603L243.731 111.902C243.944 110.847 244.807 110.046 245.875 109.914L257.382 108.487L257.388 108.458L257.755 108.441L258.428 108.358L258.417 108.41L265.096 108.099ZM276.088 120.548C276.671 114.2 271.51 108.801 265.143 109.098L258.214 109.421L256.704 116.931L273.893 123.562C274.822 123.921 275.835 123.291 275.926 122.3L276.088 120.548ZM255.715 116.778L257.174 109.521L245.998 110.906C245.357 110.986 244.839 111.466 244.712 112.099L243.968 115.8C243.771 116.777 244.565 117.67 245.558 117.591L255.715 116.778Z" fill="black"/>
<path d="M28.2815 595.319V92.9241C28.2815 82.9405 29.784 73.0138 32.7387 63.4774L39.8783 40.4333C43.8667 27.5605 54.4557 17.8176 67.6155 14.9128L92.2867 9.46704C99.3297 7.9124 106.521 7.12817 113.733 7.12817H164.367C172.493 7.12817 180.589 8.12379 188.474 10.0928L211.232 15.776C223.75 18.9022 233.782 28.2446 237.791 40.5092L245.077 62.8045C248.339 72.7836 250 83.2159 250 93.7144V595.319C250 601.55 245.038 606.647 238.81 606.815L139.154 609.5H139.127L39.4718 606.815C33.2434 606.647 28.2815 601.55 28.2815 595.319Z" stroke="black"/>
<path d="M220.815 147.748H57.4059C54.4301 147.748 51.8199 145.763 51.0249 142.895L39.283 100.538C36.6601 91.076 42.5044 81.3494 52.0884 79.222L76.5264 74.8181C94.0556 71.6592 111.832 70.0703 129.643 70.0703H151.951C168.371 70.0703 184.763 71.4207 200.962 74.1077L225.595 78.1938C235.469 80.2194 241.583 90.1607 238.936 99.8875L227.247 142.833C226.457 145.735 223.823 147.748 220.815 147.748Z" fill="#EDF5F9" stroke="black"/>
<path d="M218.872 147.748H58.9967C55.0722 147.748 51.623 145.147 50.5437 141.374L39.514 102.814C36.5045 92.2925 40.8961 81.0573 50.2427 75.3658C50.7445 75.0603 51.2753 74.805 51.8272 74.6037L57.703 72.4609C79.606 64.4733 102.74 60.3867 126.054 60.3867H158.832C178.613 60.3867 197.953 64.2942 216.726 70.6066C219.583 71.5671 222.681 72.5024 226.242 73.4118C227.335 73.6907 228.372 74.1534 229.294 74.7924C238.009 80.8393 241.909 91.7625 238.995 101.962L227.849 140.977C226.704 144.985 223.04 147.748 218.872 147.748Z" stroke="black"/>
<circle cx="88.908" cy="144.012" r="23.1033" stroke="black" stroke-dasharray="4 4"/>
<rect x="62.1736" y="168.115" width="53.4692" height="71.6256" rx="7.5" stroke="black" stroke-dasharray="4 4"/>
<rect x="71.5" y="177.5" width="34" height="40" rx="7.5" stroke="black" stroke-dasharray="4 4"/>
<rect x="125.116" y="164.484" width="99.4655" height="71.6256" rx="7.5" stroke="black" stroke-dasharray="4 4"/>
<rect x="135.5" y="174.5" width="78" height="40" rx="7.5" stroke="black" stroke-dasharray="4 4"/>
<path d="M32.3343 215.309L38.7015 213.572C39.6557 213.312 40.5962 214.03 40.5962 215.019V226.978C40.5962 230.016 38.1338 232.478 35.0962 232.478H30.7815C29.4008 232.478 28.2815 231.359 28.2815 229.978V220.615C28.2815 218.135 29.9415 215.961 32.3343 215.309Z" stroke="black"/>
<path d="M245.947 215.309L239.58 213.572C238.626 213.312 237.686 214.03 237.686 215.019V226.978C237.686 230.016 240.148 232.478 243.186 232.478H247.5C248.881 232.478 250 231.359 250 229.978V220.615C250 218.135 248.34 215.961 245.947 215.309Z" stroke="black"/>
<path d="M37.4651 231.557V584.475C37.4651 588.893 41.0468 592.475 45.4651 592.475H231.606C236.025 592.475 239.606 588.893 239.606 584.475V231.557" stroke="black"/>
<path d="M37.4651 235.557V588.475C37.4651 592.893 41.0468 596.475 45.4651 596.475H231.606C236.025 596.475 239.606 592.893 239.606 588.475V235.557" stroke="black"/>
<path d="M225.013 457.066L239.106 451.586V544.537L225.013 539.056C220.977 537.487 218.319 533.601 218.319 529.27V466.852C218.319 462.522 220.977 458.636 225.013 457.066Z" stroke="black"/>
<path d="M52.0584 457.066L37.965 451.586V544.537L52.0584 539.056C56.0943 537.487 58.7527 533.601 58.7527 529.27V466.852C58.7527 462.522 56.0943 458.636 52.0584 457.066Z" stroke="black"/>
<path fill-rule="evenodd" clip-rule="evenodd" d="M167.65 185.2C168.327 185.2 168.875 185.748 168.875 186.425V188.999C170.431 187.411 172.6 186.425 175 186.425C178.736 186.425 181.91 188.813 183.087 192.142C183.312 192.78 182.978 193.479 182.34 193.705C181.702 193.93 181.002 193.596 180.777 192.958C179.935 190.578 177.665 188.875 175 188.875C172.997 188.875 171.217 189.837 170.099 191.325H173.775C174.452 191.325 175 191.873 175 192.55C175 193.226 174.452 193.775 173.775 193.775H167.65C166.974 193.775 166.425 193.226 166.425 192.55V186.425C166.425 185.748 166.974 185.2 167.65 185.2ZM167.66 196.295C168.298 196.07 168.998 196.404 169.223 197.042C170.065 199.422 172.335 201.125 175 201.125C177.003 201.125 178.783 200.163 179.901 198.675L176.225 198.675C175.549 198.675 175 198.126 175 197.45C175 196.773 175.549 196.225 176.225 196.225H182.35C182.675 196.225 182.987 196.354 183.216 196.584C183.446 196.813 183.575 197.125 183.575 197.45V203.575C183.575 204.251 183.027 204.8 182.35 204.8C181.674 204.8 181.125 204.251 181.125 203.575V201.001C179.569 202.589 177.4 203.575 175 203.575C171.265 203.575 168.09 201.187 166.913 197.858C166.688 197.22 167.022 196.52 167.66 196.295Z" fill="#424242"/>
<path fill-rule="evenodd" clip-rule="evenodd" d="M80.65 188.2C81.3266 188.2 81.875 188.748 81.875 189.425V191.999C83.4309 190.411 85.5997 189.425 88 189.425C91.7356 189.425 94.9102 191.813 96.0868 195.142C96.3123 195.78 95.9779 196.479 95.34 196.705C94.7022 196.93 94.0023 196.596 93.7768 195.958C92.9354 193.578 90.665 191.875 88 191.875C85.9973 191.875 84.2173 192.837 83.0993 194.325H86.775C87.4516 194.325 88 194.873 88 195.55C88 196.226 87.4516 196.775 86.775 196.775H80.65C79.9735 196.775 79.425 196.226 79.425 195.55V189.425C79.425 188.748 79.9735 188.2 80.65 188.2ZM80.6601 199.295C81.2979 199.07 81.9978 199.404 82.2233 200.042C83.0647 202.422 85.3351 204.125 88 204.125C90.0028 204.125 91.7828 203.163 92.9008 201.675L89.225 201.675C88.5485 201.675 88.0001 201.126 88.0001 200.45C88.0001 199.773 88.5485 199.225 89.225 199.225H95.35C95.6749 199.225 95.9865 199.354 96.2163 199.584C96.446 199.813 96.5751 200.125 96.5751 200.45V206.575C96.5751 207.251 96.0266 207.8 95.3501 207.8C94.6735 207.8 94.1251 207.251 94.1251 206.575V204.001C92.5692 205.589 90.4004 206.575 88 206.575C84.2645 206.575 81.0899 204.187 79.9133 200.858C79.6878 200.22 80.0222 199.52 80.6601 199.295Z" fill="#424242"/>
<path d="M28.5 451.5H249.5V591C249.5 595.694 245.694 599.5 241 599.5H37C32.3056 599.5 28.5 595.694 28.5 591V451.5Z" fill="#70BBA9" fill-opacity="0.5" stroke="black"/>
<path d="M158.5 451.5H28.5V374.5H103.7L158.5 425.697V451.5Z" fill="#70A2D1" fill-opacity="0.33" stroke="black"/>
<rect x="218.5" y="318.5" width="31" height="69" fill="#D19F70" fill-opacity="0.5" stroke="black"/>
<path d="M28.5 248.5H91.929C96.5838 248.5 101.221 249.075 105.735 250.213L133.588 257.231C136.476 257.959 138.5 260.556 138.5 263.534V296.94C138.5 300.53 135.59 303.44 132 303.44H103C100.515 303.44 98.5 305.455 98.5 307.94V374.5H28.5V248.5Z" fill="#D19F70" fill-opacity="0.5" stroke="black"/>
<path d="M158.5 426.772L219.148 387.5H249.5V451.5H158.5V426.772Z" fill="#D19F70" fill-opacity="0.3" stroke="black"/>
<rect x="54.5" y="339.5" width="33" height="27" rx="3.5" fill="#EBEBEB" stroke="black"/>
<rect x="52.5" y="445.5" width="29" height="4" rx="2" fill="#EBEBEB" stroke="black"/>
<mask id="path-28-inside-1_2702_84277" fill="white">
<path fill-rule="evenodd" clip-rule="evenodd" d="M110.923 440.739C109.195 439.918 108 438.156 108 436.115C108 433.29 110.29 431 113.115 431C115.941 431 118.231 433.29 118.231 436.115C118.231 438.156 117.036 439.918 115.308 440.739L115.308 447.808C115.308 449.018 114.326 450 113.115 450C111.905 450 110.923 449.018 110.923 447.808L110.923 440.739Z"/>
</mask>
<path fill-rule="evenodd" clip-rule="evenodd" d="M110.923 440.739C109.195 439.918 108 438.156 108 436.115C108 433.29 110.29 431 113.115 431C115.941 431 118.231 433.29 118.231 436.115C118.231 438.156 117.036 439.918 115.308 440.739L115.308 447.808C115.308 449.018 114.326 450 113.115 450C111.905 450 110.923 449.018 110.923 447.808L110.923 440.739Z" fill="#EBEBEB"/>
<path d="M110.923 440.739H111.923V440.106L111.352 439.835L110.923 440.739ZM108 436.115H107H108ZM115.308 440.739L114.879 439.835L114.308 440.106V440.739H115.308ZM110.923 447.808H111.923H110.923ZM111.352 439.835C109.959 439.174 109 437.756 109 436.115H107C107 438.556 108.43 440.661 110.494 441.642L111.352 439.835ZM109 436.115C109 433.843 110.843 432 113.115 432V430C109.738 430 107 432.738 107 436.115H109ZM113.115 432C115.388 432 117.231 433.843 117.231 436.115H119.231C119.231 432.738 116.493 430 113.115 430V432ZM117.231 436.115C117.231 437.756 116.271 439.174 114.879 439.835L115.737 441.642C117.801 440.661 119.231 438.556 119.231 436.115H117.231ZM114.308 440.739V447.808H116.308V440.739H114.308ZM114.308 447.808C114.308 448.466 113.774 449 113.115 449V451C114.878 451 116.308 449.571 116.308 447.808H114.308ZM113.115 449C112.457 449 111.923 448.466 111.923 447.808H109.923C109.923 449.571 111.352 451 113.115 451V449ZM111.923 447.808L111.923 440.739H109.923L109.923 447.808H111.923Z" fill="black" mask="url(#path-28-inside-1_2702_84277)"/>
<rect x="89.5" y="416.5" width="6" height="6" rx="3" transform="rotate(-90 89.5 416.5)" stroke="black"/>
<rect x="52.5" y="290.5" width="35" height="42" rx="1.5" fill="#757575" stroke="black"/>
<rect x="28.5" y="388.5" width="52" height="42" rx="3.5" fill="white" fill-opacity="0.8" stroke="black"/>
<circle cx="62" cy="347" r="2.5" stroke="black"/>
<circle cx="70" cy="322" r="7.5" stroke="black"/>
<circle cx="70" cy="304" r="7.5" stroke="black"/>
<circle cx="63.5" cy="293.5" r="1" stroke="black"/>
<circle cx="76.5" cy="293.5" r="1" stroke="black"/>
<path d="M54.3581 405.62C54.2181 405.425 53.9922 405.309 53.7518 405.309H53.6781C53.3565 405.309 53.0712 405.515 52.97 405.82L51.3668 410.658L49.7561 405.819C49.6546 405.514 49.3695 405.309 49.0483 405.309H49.0004C48.9974 405.309 48.9943 405.309 48.9915 405.309C48.9884 405.309 48.9854 405.309 48.9825 405.309H48.9244C48.6027 405.309 48.3173 405.515 48.2161 405.82L46.6129 410.658L45.0023 405.819C44.9009 405.514 44.6157 405.309 44.2945 405.309H44.2206C43.9802 405.309 43.7544 405.425 43.6143 405.62C43.4741 405.815 43.437 406.066 43.5141 406.294L45.8505 413.185C45.9532 413.488 46.2373 413.691 46.5571 413.691H46.588C46.5969 413.691 46.6056 413.691 46.6145 413.691C46.6232 413.691 46.632 413.691 46.6409 413.691H46.6615C46.9818 413.691 47.2663 413.487 47.3685 413.184L48.9899 408.37L50.6038 413.183C50.7058 413.487 50.9906 413.691 51.3112 413.691H51.3419C51.3508 413.691 51.3595 413.691 51.3684 413.691C51.3771 413.691 51.386 413.691 51.3948 413.691H51.4155C51.7352 413.691 52.0193 413.488 52.1221 413.185L54.4584 406.294C54.5355 406.066 54.4982 405.815 54.3581 405.62Z" fill="black"/>
<path d="M61.2562 411.526C60.9793 411.269 60.5538 411.259 60.2658 411.504C59.7696 411.925 59.1297 412.157 58.464 412.157C56.9461 412.157 55.7112 410.963 55.7112 409.495C55.7112 408.033 56.9461 406.843 58.464 406.843C59.1361 406.843 59.7754 407.071 60.2645 407.485C60.5607 407.736 60.9996 407.718 61.2741 407.443L61.299 407.418C61.4471 407.27 61.526 407.067 61.5167 406.858C61.5074 406.648 61.4106 406.453 61.25 406.318C60.4715 405.667 59.4819 405.309 58.464 405.309C56.1 405.309 54.1768 407.187 54.1768 409.495C54.1768 411.809 56.1 413.692 58.464 413.692C59.4803 413.692 60.4724 413.33 61.2577 412.674C61.422 412.536 61.5194 412.335 61.5249 412.121C61.5306 411.907 61.4438 411.7 61.2869 411.555L61.2562 411.526Z" fill="black"/>
<path d="M76.5058 477.748C77.4433 477.723 78.3809 477.798 79.3023 477.974C79.5315 478.017 79.7488 478.108 79.9398 478.242C80.1307 478.375 80.2908 478.548 80.4093 478.749C80.5278 478.95 80.6019 479.174 80.6267 479.405C80.6514 479.637 80.6263 479.872 80.5529 480.093C80.2642 481.008 79.8739 481.888 79.3891 482.716L78.6249 483.914C77.8324 484.971 77.3295 486.216 77.1658 487.527C76.7984 490.174 76.294 492.801 75.6547 495.396C74.8044 498.686 73.7248 501.913 72.4239 505.053C72.7023 506.121 72.8596 507.216 72.8929 508.319C72.9282 508.828 72.9282 509.338 72.8929 509.847C72.8929 510.316 72.7887 510.768 72.7192 511.167C72.6083 511.614 72.3247 511.998 71.9306 512.236C71.5366 512.474 71.0643 512.546 70.6175 512.435C69.7056 512.153 68.8309 511.762 68.012 511.272C66.7984 510.546 65.4282 510.123 64.017 510.038C60.1871 509.802 56.4349 508.853 52.9525 507.242C51.6783 506.639 50.2794 506.348 48.8706 506.391C47.9214 506.421 46.9717 506.346 46.0394 506.165C45.8066 506.125 45.5853 506.035 45.3908 505.901C45.1962 505.767 45.033 505.592 44.9125 505.389C44.792 505.186 44.7169 504.959 44.6925 504.724C44.6682 504.489 44.6951 504.252 44.7714 504.028C44.9118 503.598 45.0741 503.174 45.2577 502.76C45.4558 502.301 45.682 501.854 45.9351 501.423C46.2015 500.983 46.462 500.583 46.7168 500.224C47.505 499.159 48.0073 497.909 48.1758 496.594C48.5301 493.952 49.0288 491.331 49.6696 488.743C50.3384 486.153 51.1503 483.601 52.1014 481.1C52.5747 479.874 52.7242 478.546 52.5356 477.244C52.5356 476.81 52.4488 476.324 52.4314 475.82C52.4015 474.859 52.4773 473.898 52.6572 472.954C52.692 472.725 52.7758 472.506 52.9027 472.312C53.0297 472.118 53.1969 471.954 53.3929 471.83C53.589 471.707 53.8094 471.627 54.0391 471.596C54.2688 471.565 54.5025 471.584 54.7242 471.651C55.6316 471.938 56.5052 472.322 57.3296 472.798C58.541 473.528 59.9124 473.951 61.3247 474.031C63.2233 474.158 65.1067 474.454 66.9524 474.917C68.8087 475.399 70.6169 476.05 72.3544 476.862C73.6382 477.451 75.0422 477.731 76.4537 477.679L76.5058 477.748Z" fill="#70BBA9"/>
<path opacity="0.15" d="M79.3025 477.974C79.5316 478.017 79.749 478.108 79.9399 478.242C80.1309 478.375 80.291 478.548 80.4095 478.749C80.528 478.95 80.6021 479.174 80.6268 479.405C80.6516 479.637 80.6265 479.872 80.5531 480.093C80.2644 481.008 79.874 481.888 79.3893 482.716L78.625 483.914C77.8326 484.971 77.3297 486.216 77.166 487.527C76.7986 490.174 76.2942 492.801 75.6548 495.396C74.8046 498.686 73.725 501.913 72.4241 505.053C72.7025 506.121 72.8598 507.216 72.8931 508.319C72.9284 508.828 72.9284 509.338 72.8931 509.847C72.8931 510.316 72.7888 510.768 72.7194 511.167C72.6085 511.614 72.3249 511.998 71.9308 512.236C71.5368 512.474 71.0645 512.546 70.6176 512.435C69.9676 512.217 69.3395 511.938 68.7417 511.602C69.0044 511.494 69.2367 511.324 69.4184 511.106C69.6001 510.888 69.7255 510.629 69.7839 510.351C69.7839 509.951 69.9228 509.5 69.9576 509.013C69.9844 508.51 69.9844 508.006 69.9576 507.502C69.928 506.398 69.7647 505.302 69.4712 504.237C70.7862 501.1 71.8718 497.873 72.7194 494.579C73.3604 491.979 73.8648 489.347 74.2305 486.693C74.3912 485.39 74.8881 484.151 75.6722 483.098C75.9327 482.733 76.1933 482.334 76.4538 481.882C76.9342 481.058 77.3243 480.184 77.6176 479.277C77.6977 479.004 77.7095 478.715 77.6519 478.436C77.5944 478.158 77.4693 477.898 77.2876 477.679C77.9664 477.719 78.6405 477.818 79.3025 477.974Z" fill="black"/>
<path opacity="0.45" d="M54.7243 473.527C54.5443 474.471 54.4686 475.433 54.4985 476.393C54.4985 476.897 54.4985 477.366 54.6027 477.818C54.7913 479.119 54.6418 480.447 54.1684 481.674C53.2313 484.178 52.4254 486.729 51.7541 489.316C51.108 491.904 50.6036 494.525 50.2429 497.167C50.079 498.483 49.5762 499.734 48.7838 500.798C48.5407 501.162 48.2627 501.562 48.0196 501.996C47.7764 502.43 47.5159 502.899 47.3248 503.334C47.1337 503.768 46.9948 504.202 46.8558 504.602C46.7722 504.91 46.7749 505.234 46.8638 505.541C46.9526 505.847 47.1241 506.123 47.3595 506.339C46.8732 506.339 46.4216 506.217 46.0047 506.148C45.7719 506.107 45.5506 506.017 45.3561 505.883C45.1616 505.749 44.9984 505.575 44.8778 505.372C44.7573 505.169 44.6822 504.942 44.6579 504.707C44.6335 504.472 44.6604 504.235 44.7367 504.011C44.8771 503.58 45.0394 503.157 45.2231 502.743C45.4211 502.284 45.6474 501.837 45.9005 501.406C46.1668 500.966 46.4274 500.566 46.6821 500.207C47.4704 499.141 47.9727 497.892 48.1412 496.577C48.4955 493.935 48.9941 491.314 49.635 488.726C50.3038 486.135 51.1156 483.584 52.0667 481.083C52.54 479.856 52.6896 478.528 52.5009 477.227C52.5009 476.793 52.4141 476.306 52.3967 475.803C52.3669 474.842 52.4426 473.881 52.6225 472.937C52.6586 472.705 52.7447 472.484 52.8748 472.289C53.0049 472.094 53.1759 471.93 53.3758 471.807C53.5758 471.685 53.8 471.608 54.0329 471.581C54.2657 471.554 54.5016 471.578 54.7243 471.651C55.1627 471.786 55.592 471.948 56.0096 472.138C55.6776 472.207 55.3754 472.378 55.145 472.627C54.9147 472.876 54.7676 473.191 54.7243 473.527Z" fill="white"/>
<path d="M81.6124 485.2C82.5261 484.948 83.4632 484.791 84.4089 484.731C84.8696 484.731 85.3114 484.914 85.6371 485.239C85.9629 485.565 86.1459 486.007 86.1459 486.468C86.0873 487.428 85.9182 488.378 85.6422 489.299C85.5032 489.785 85.3469 490.237 85.1906 490.654C84.6886 491.873 84.5092 493.201 84.6695 494.51C84.9705 497.163 85.1271 499.83 85.1385 502.5C85.1267 505.901 84.8712 509.297 84.3742 512.661C84.9171 513.626 85.3428 514.652 85.6422 515.718C85.7811 516.239 85.9027 516.726 85.9896 517.195C86.0764 517.664 86.1112 518.115 86.1459 518.515C86.1459 518.975 85.9629 519.417 85.6371 519.743C85.3114 520.069 84.8696 520.252 84.4089 520.252C83.4616 520.194 82.5237 520.031 81.6124 519.765C80.2392 519.373 78.7924 519.314 77.3916 519.592C73.6368 520.285 69.7866 520.285 66.0318 519.592C64.6678 519.34 63.264 519.412 61.9326 519.8C60.981 520.07 60.0022 520.233 59.0145 520.286C58.5538 520.286 58.112 520.103 57.7862 519.778C57.4605 519.452 57.2775 519.01 57.2775 518.549C57.3068 518.101 57.359 517.655 57.4338 517.212C57.5144 516.719 57.6246 516.232 57.7638 515.753C57.9028 515.267 58.0591 514.815 58.2154 514.398C58.7158 513.172 58.8952 511.839 58.7365 510.525C58.4349 507.872 58.2784 505.204 58.2676 502.535C58.2789 499.865 58.4355 497.197 58.7365 494.545C58.8969 493.236 58.7174 491.908 58.2154 490.688C58.0591 490.272 57.9028 489.82 57.7638 489.334C57.5011 488.41 57.338 487.461 57.2775 486.502C57.2621 486.27 57.2965 486.038 57.3784 485.82C57.4603 485.602 57.5877 485.405 57.7521 485.24C57.9166 485.076 58.1143 484.948 58.332 484.866C58.5497 484.784 58.7824 484.75 59.0145 484.765C59.9657 484.828 60.9083 484.985 61.8283 485.234C63.1817 485.634 64.6106 485.705 65.9971 485.443C67.8709 485.099 69.7719 484.925 71.677 484.922C73.582 484.926 75.4829 485.1 77.3568 485.443C78.7491 485.704 80.1834 485.632 81.5429 485.234L81.6124 485.2Z" fill="#70BBA9"/>
<path opacity="0.15" d="M84.4091 484.731C84.8698 484.731 85.3116 484.914 85.6373 485.24C85.9631 485.565 86.1461 486.007 86.1461 486.468C86.0874 487.428 85.9184 488.378 85.6424 489.299C85.5034 489.786 85.3471 490.237 85.1907 490.654C84.6888 491.873 84.5093 493.201 84.6697 494.51C84.9707 497.163 85.1273 499.83 85.1386 502.5C85.1268 505.901 84.8714 509.297 84.3744 512.661C84.9173 513.626 85.343 514.653 85.6424 515.718C85.7813 516.24 85.9029 516.726 85.9898 517.195C86.0766 517.664 86.1113 518.115 86.1461 518.515C86.1461 518.976 85.9631 519.417 85.6373 519.743C85.3116 520.069 84.8698 520.252 84.4091 520.252C83.737 520.212 83.0691 520.119 82.4116 519.974C82.642 519.802 82.8261 519.575 82.9474 519.315C83.0686 519.054 83.1233 518.767 83.1064 518.48C83.1064 518.081 83.1064 517.629 82.9501 517.16C82.8677 516.662 82.7575 516.169 82.62 515.684C82.3207 514.618 81.895 513.592 81.3521 512.627C81.8491 509.262 82.1045 505.866 82.1163 502.465C82.105 499.796 81.9484 497.128 81.6473 494.475C81.487 493.167 81.6665 491.839 82.1684 490.619C82.3248 490.202 82.4811 489.751 82.62 489.264C82.8828 488.341 83.0459 487.392 83.1064 486.433C83.1155 486.15 83.0554 485.87 82.9313 485.615C82.8072 485.361 82.6228 485.141 82.3942 484.974C83.0585 484.841 83.7322 484.759 84.4091 484.731Z" fill="black"/>
<path opacity="0.45" d="M59.4487 486.468C59.5092 487.426 59.6723 488.375 59.935 489.299C60.074 489.785 60.2303 490.237 60.3867 490.654C60.9023 491.869 61.088 493.199 60.9251 494.51C60.6091 497.162 60.4467 499.829 60.4388 502.5C60.4462 505.17 60.6085 507.838 60.9251 510.49C61.087 511.806 60.9014 513.141 60.3867 514.363C60.2303 514.78 60.074 515.232 59.935 515.718C59.7958 516.197 59.6856 516.685 59.605 517.177C59.529 517.632 59.4769 518.09 59.4487 518.549C59.4333 518.878 59.5117 519.205 59.6747 519.491C59.8376 519.777 60.0785 520.01 60.3693 520.165C59.9201 520.229 59.4679 520.27 59.0145 520.286C58.5538 520.286 58.112 520.103 57.7862 519.778C57.4605 519.452 57.2775 519.01 57.2775 518.549C57.3068 518.101 57.359 517.655 57.4338 517.212C57.5144 516.719 57.6246 516.232 57.7638 515.753C57.9028 515.267 58.0591 514.815 58.2154 514.398C58.7158 513.172 58.8952 511.839 58.7365 510.525C58.4349 507.872 58.2784 505.204 58.2676 502.535C58.2789 499.865 58.4355 497.197 58.7365 494.545C58.8969 493.236 58.7174 491.908 58.2154 490.688C58.0591 490.272 57.9028 489.82 57.7638 489.334C57.5011 488.41 57.338 487.461 57.2775 486.502C57.2621 486.27 57.2965 486.038 57.3784 485.82C57.4603 485.602 57.5877 485.405 57.7521 485.24C57.9166 485.076 58.1143 484.948 58.332 484.866C58.5497 484.784 58.7824 484.75 59.0145 484.765C59.4685 484.794 59.9207 484.846 60.3693 484.922C60.0893 485.071 59.8555 485.294 59.6932 485.566C59.5309 485.839 59.4464 486.15 59.4487 486.468Z" fill="white"/>
<path d="M53.0742 471.321C52.7872 471.491 52.5396 471.719 52.348 471.992C52.1563 472.264 52.0249 472.575 51.9625 472.902C51.7943 473.883 51.7187 474.877 51.7367 475.872L51.8583 477.366C52.0053 478.539 51.8683 479.731 51.4588 480.84C50.495 483.362 49.6773 485.936 49.0097 488.552C48.3546 491.167 47.8501 493.817 47.4985 496.49C47.3393 497.691 46.8792 498.832 46.1611 499.808C45.8563 500.245 45.5835 500.703 45.3447 501.18C44.8443 502.046 44.4312 502.959 44.1114 503.907C44.0096 504.223 43.977 504.557 44.016 504.887C44.0549 505.217 44.1645 505.534 44.3372 505.818C44.5022 506.098 44.7257 506.339 44.9925 506.525C45.2593 506.711 45.5631 506.837 45.8831 506.894C46.8676 507.08 47.8696 507.156 48.8707 507.12C50.1859 507.082 51.4926 507.344 52.6921 507.885C54.4094 508.674 56.1941 509.307 58.0245 509.778L58.0245 510.629C58.1529 511.808 57.9919 513 57.5556 514.103C57.3596 514.559 57.1971 515.03 57.0692 515.51C56.7904 516.473 56.6157 517.463 56.5481 518.463C56.5363 518.783 56.5903 519.103 56.7068 519.401C56.8233 519.7 56.9999 519.972 57.2255 520.2C57.456 520.421 57.7285 520.593 58.0269 520.706C58.3253 520.82 58.6435 520.872 58.9625 520.86C59.9668 520.791 60.9618 520.622 61.9327 520.356C63.2324 520.004 64.5992 519.98 65.9104 520.286C69.7616 521.011 73.7142 521.011 77.5654 520.286C78.8661 520.043 80.2062 520.114 81.4736 520.495C82.4321 520.764 83.4158 520.932 84.4091 520.999C84.7294 521.009 85.0486 520.955 85.3472 520.839C85.6458 520.722 85.9176 520.546 86.146 520.321C86.3703 520.093 86.5448 519.821 86.6584 519.522C86.772 519.223 86.8223 518.904 86.8061 518.584C86.7256 517.549 86.5394 516.525 86.2503 515.527C85.9465 514.49 85.5331 513.489 85.017 512.54C85.5045 509.215 85.7483 505.86 85.7465 502.5C85.7427 499.807 85.5862 497.116 85.2776 494.44C85.1468 493.26 85.314 492.066 85.7639 490.966C85.9376 490.515 86.0939 490.046 86.2503 489.542C86.5149 488.577 86.6836 487.588 86.754 486.589L86.754 486.433C86.7518 485.829 86.5151 485.25 86.0939 484.818C85.8655 484.593 85.5937 484.417 85.2951 484.3C84.9965 484.184 84.6773 484.129 84.357 484.14C83.3644 484.212 82.3812 484.381 81.4215 484.644C80.5753 484.886 79.6956 484.992 78.816 484.957L79.2155 484.349C79.5153 483.947 79.7936 483.529 80.0493 483.098C80.5352 482.221 80.9421 481.303 81.2652 480.354C81.3338 480.116 81.3689 479.871 81.3694 479.624C81.373 479.089 81.1863 478.57 80.8428 478.159C80.4992 477.749 80.021 477.474 79.4935 477.383C78.5088 477.198 77.5075 477.117 76.5059 477.14C75.1913 477.192 73.8827 476.937 72.6845 476.393C70.9072 475.548 69.0514 474.879 67.1436 474.396C65.2546 473.912 63.3235 473.609 61.3769 473.493C60.1142 473.4 58.887 473.032 57.7814 472.416L57.6424 472.311C56.7922 471.837 55.9031 471.436 54.9848 471.113C54.6695 471.012 54.3365 470.978 54.0074 471.014C53.6782 471.05 53.3603 471.155 53.0742 471.321ZM85.2255 485.669C85.3206 485.771 85.3943 485.891 85.442 486.023C85.4898 486.154 85.5106 486.293 85.5034 486.433C85.4457 487.309 85.2943 488.177 85.0518 489.021C84.9128 489.49 84.7565 489.924 84.6001 490.324C84.1879 491.339 83.9756 492.424 83.9748 493.52C83.9483 493.844 83.9483 494.169 83.9748 494.493C84.2764 497.122 84.4272 499.766 84.4265 502.413C84.4307 505.785 84.181 509.153 83.6796 512.488C83.6289 512.622 83.6289 512.77 83.6796 512.904C84.2056 513.818 84.6197 514.792 84.9128 515.805C85.2138 516.694 85.4119 517.615 85.5034 518.55C85.5116 518.689 85.4913 518.829 85.4435 518.96C85.3957 519.092 85.3215 519.212 85.2255 519.314C85.1334 519.41 85.023 519.488 84.9008 519.542C84.7785 519.595 84.6468 519.624 84.5133 519.626C83.6084 519.569 82.7119 519.418 81.8384 519.175C80.3778 518.745 78.836 518.667 77.3396 518.949C75.5057 519.283 73.6455 519.452 71.7813 519.453C69.9163 519.455 68.0552 519.281 66.223 518.932C64.7253 518.656 63.1835 518.739 61.7243 519.175C60.8507 519.418 59.9543 519.569 59.0494 519.626C58.9082 519.636 58.7666 519.614 58.6346 519.563C58.5026 519.512 58.3833 519.433 58.2851 519.331C58.1693 519.237 58.0763 519.118 58.0131 518.982C57.9499 518.847 57.9182 518.699 57.9203 518.55C58.0014 517.647 58.182 516.755 58.4588 515.892C58.5773 515.455 58.7223 515.026 58.893 514.607C59.4258 513.28 59.6227 511.842 59.4662 510.421C59.1583 507.791 59.0017 505.147 58.9972 502.5C59.0022 499.853 59.1588 497.208 59.4662 494.579C59.6198 493.164 59.4229 491.732 58.893 490.411C58.7189 489.957 58.5739 489.493 58.4588 489.021C58.2043 488.149 58.047 487.252 57.9898 486.346C57.9767 486.205 57.9965 486.062 58.0477 485.929C58.099 485.797 58.1802 485.678 58.2851 485.582C58.3833 485.48 58.5026 485.401 58.6346 485.35C58.7666 485.299 58.9082 485.277 59.0494 485.287C59.9591 485.351 60.8607 485.502 61.7417 485.738C63.1948 486.175 64.7312 486.258 66.223 485.981C68.0554 485.634 69.9163 485.46 71.7813 485.46C73.6463 485.459 75.5073 485.633 77.3396 485.981L77.7912 485.981C79.1232 486.162 80.4782 486.061 81.7689 485.686C82.6708 485.49 83.5903 485.385 84.5133 485.373C84.7804 485.374 85.0366 485.48 85.2255 485.669ZM54.5332 472.364C55.3777 472.634 56.1971 472.977 56.9824 473.388C58.2868 474.164 59.7578 474.617 61.2727 474.708C63.1352 474.84 64.9831 475.131 66.7962 475.577C68.587 476.041 70.3313 476.669 72.0071 477.453C73.3944 478.088 74.9122 478.385 76.4364 478.321C77.3991 478.306 78.3605 478.399 79.3024 478.599C79.444 478.619 79.5789 478.672 79.6965 478.754C79.8141 478.835 79.9111 478.943 79.9798 479.068C80.0576 479.185 80.1061 479.318 80.1212 479.457C80.1363 479.596 80.1176 479.737 80.0667 479.867C79.7901 480.745 79.4172 481.59 78.955 482.386C78.734 482.771 78.4904 483.142 78.2255 483.498C77.9374 483.89 77.6873 484.309 77.4786 484.748C75.6053 484.4 73.704 484.226 71.7987 484.227C69.8526 484.232 67.911 484.413 65.9972 484.766C64.6476 485.041 63.2506 484.975 61.9327 484.574C60.973 484.311 59.9898 484.143 58.9972 484.071C58.6767 484.058 58.3569 484.111 58.058 484.228C57.7591 484.344 57.4875 484.522 57.2603 484.748C57.0293 484.972 56.8492 485.243 56.7323 485.543C56.6154 485.843 56.5645 486.164 56.5829 486.485C56.6505 487.485 56.8252 488.475 57.1039 489.438C57.2346 489.923 57.3971 490.399 57.5903 490.862C58.0266 491.965 58.1876 493.157 58.0593 494.336C57.7514 497.012 57.5948 499.703 57.5903 502.396C57.5903 504.376 57.7119 506.321 57.8682 508.232C56.2893 507.826 54.7444 507.298 53.2479 506.651C51.8592 506.019 50.3435 505.716 48.8186 505.765C47.9164 505.788 47.0143 505.718 46.1263 505.557C45.9867 505.531 45.8542 505.476 45.7375 505.395C45.6207 505.314 45.5224 505.21 45.4489 505.088C45.3848 504.962 45.3514 504.822 45.3514 504.68C45.3514 504.538 45.3848 504.398 45.4489 504.272C45.7241 503.399 46.097 502.56 46.5606 501.77C46.7864 501.371 47.0469 500.989 47.2901 500.641C48.1458 499.497 48.6904 498.151 48.8707 496.733C49.2274 494.11 49.7202 491.507 50.3471 488.934C50.9877 486.376 51.7646 483.854 52.6747 481.378C53.1786 480.05 53.3398 478.617 53.1437 477.21C53.1437 476.775 53.1437 476.324 53.0394 475.837C53.0251 474.93 53.0948 474.023 53.2479 473.128C53.2737 472.986 53.3307 472.852 53.4148 472.734C53.4989 472.617 53.608 472.52 53.7342 472.45C53.8506 472.373 53.984 472.324 54.1231 472.309C54.2622 472.294 54.4029 472.313 54.5332 472.364Z" fill="black"/>
<path d="M76.5058 533.748C77.4433 533.723 78.3809 533.798 79.3023 533.974C79.5315 534.017 79.7488 534.108 79.9398 534.242C80.1307 534.375 80.2908 534.548 80.4093 534.749C80.5278 534.95 80.6019 535.174 80.6267 535.405C80.6514 535.637 80.6263 535.872 80.5529 536.093C80.2642 537.008 79.8739 537.888 79.3891 538.716L78.6249 539.914C77.8324 540.971 77.3295 542.216 77.1658 543.527C76.7984 546.174 76.294 548.801 75.6547 551.396C74.8044 554.686 73.7248 557.913 72.4239 561.053C72.7023 562.121 72.8596 563.216 72.8929 564.319C72.9282 564.828 72.9282 565.338 72.8929 565.847C72.8929 566.316 72.7887 566.768 72.7192 567.167C72.6083 567.614 72.3247 567.998 71.9306 568.236C71.5366 568.474 71.0643 568.546 70.6175 568.435C69.7056 568.153 68.8309 567.762 68.012 567.272C66.7984 566.546 65.4282 566.123 64.017 566.038C60.1871 565.802 56.4349 564.853 52.9525 563.242C51.6783 562.639 50.2794 562.348 48.8706 562.391C47.9214 562.421 46.9717 562.346 46.0394 562.165C45.8066 562.125 45.5853 562.035 45.3908 561.901C45.1962 561.767 45.033 561.592 44.9125 561.389C44.792 561.186 44.7169 560.959 44.6925 560.724C44.6682 560.489 44.6951 560.252 44.7714 560.028C44.9118 559.598 45.0741 559.174 45.2577 558.76C45.4558 558.301 45.682 557.854 45.9351 557.423C46.2015 556.983 46.462 556.583 46.7168 556.224C47.505 555.159 48.0073 553.909 48.1758 552.594C48.5301 549.952 49.0288 547.331 49.6696 544.743C50.3384 542.153 51.1503 539.601 52.1014 537.1C52.5747 535.874 52.7242 534.546 52.5356 533.244C52.5356 532.81 52.4488 532.324 52.4314 531.82C52.4015 530.859 52.4773 529.898 52.6572 528.954C52.692 528.725 52.7758 528.506 52.9027 528.312C53.0297 528.118 53.1969 527.954 53.3929 527.83C53.589 527.707 53.8094 527.627 54.0391 527.596C54.2688 527.565 54.5025 527.584 54.7242 527.651C55.6316 527.938 56.5052 528.322 57.3296 528.798C58.541 529.528 59.9124 529.951 61.3247 530.031C63.2233 530.158 65.1067 530.454 66.9524 530.917C68.8087 531.399 70.6169 532.05 72.3544 532.862C73.6382 533.451 75.0422 533.731 76.4537 533.679L76.5058 533.748Z" fill="#70BBA9"/>
<path opacity="0.15" d="M79.3025 533.974C79.5316 534.017 79.749 534.108 79.9399 534.242C80.1309 534.375 80.291 534.548 80.4095 534.749C80.528 534.95 80.6021 535.174 80.6268 535.405C80.6516 535.637 80.6265 535.872 80.5531 536.093C80.2644 537.008 79.874 537.888 79.3893 538.716L78.625 539.914C77.8326 540.971 77.3297 542.216 77.166 543.527C76.7986 546.174 76.2942 548.801 75.6548 551.396C74.8046 554.686 73.725 557.913 72.4241 561.053C72.7025 562.121 72.8598 563.216 72.8931 564.319C72.9284 564.828 72.9284 565.338 72.8931 565.847C72.8931 566.316 72.7888 566.768 72.7194 567.167C72.6085 567.614 72.3249 567.998 71.9308 568.236C71.5368 568.474 71.0645 568.546 70.6176 568.435C69.9676 568.217 69.3395 567.938 68.7417 567.602C69.0044 567.494 69.2367 567.324 69.4184 567.106C69.6001 566.888 69.7255 566.629 69.7839 566.351C69.7839 565.951 69.9228 565.5 69.9576 565.013C69.9844 564.51 69.9844 564.006 69.9576 563.502C69.928 562.398 69.7647 561.302 69.4712 560.237C70.7862 557.1 71.8718 553.873 72.7194 550.579C73.3604 547.979 73.8648 545.347 74.2305 542.693C74.3912 541.39 74.8881 540.151 75.6722 539.098C75.9327 538.733 76.1933 538.334 76.4538 537.882C76.9342 537.058 77.3243 536.184 77.6176 535.277C77.6977 535.004 77.7095 534.715 77.6519 534.436C77.5944 534.158 77.4693 533.898 77.2876 533.679C77.9664 533.719 78.6405 533.818 79.3025 533.974Z" fill="black"/>
<path opacity="0.45" d="M54.7243 529.527C54.5443 530.471 54.4686 531.433 54.4985 532.393C54.4985 532.897 54.4985 533.366 54.6027 533.818C54.7913 535.119 54.6418 536.447 54.1684 537.674C53.2313 540.178 52.4254 542.729 51.7541 545.316C51.108 547.904 50.6036 550.525 50.2429 553.167C50.079 554.483 49.5762 555.734 48.7838 556.798C48.5407 557.162 48.2627 557.562 48.0196 557.996C47.7764 558.43 47.5159 558.899 47.3248 559.334C47.1337 559.768 46.9948 560.202 46.8558 560.602C46.7722 560.91 46.7749 561.234 46.8638 561.541C46.9526 561.847 47.1241 562.123 47.3595 562.339C46.8732 562.339 46.4216 562.217 46.0047 562.148C45.7719 562.107 45.5506 562.017 45.3561 561.883C45.1616 561.749 44.9984 561.575 44.8778 561.372C44.7573 561.169 44.6822 560.942 44.6579 560.707C44.6335 560.472 44.6604 560.235 44.7367 560.011C44.8771 559.58 45.0394 559.157 45.2231 558.743C45.4211 558.284 45.6474 557.837 45.9005 557.406C46.1668 556.966 46.4274 556.566 46.6821 556.207C47.4704 555.141 47.9727 553.892 48.1412 552.577C48.4955 549.935 48.9941 547.314 49.635 544.726C50.3038 542.135 51.1156 539.584 52.0667 537.083C52.54 535.856 52.6896 534.528 52.5009 533.227C52.5009 532.793 52.4141 532.306 52.3967 531.803C52.3669 530.842 52.4426 529.881 52.6225 528.937C52.6586 528.705 52.7447 528.484 52.8748 528.289C53.0049 528.094 53.1759 527.93 53.3758 527.807C53.5758 527.685 53.8 527.608 54.0329 527.581C54.2657 527.554 54.5016 527.578 54.7243 527.651C55.1627 527.786 55.592 527.948 56.0096 528.138C55.6776 528.207 55.3754 528.378 55.145 528.627C54.9147 528.876 54.7676 529.191 54.7243 529.527Z" fill="white"/>
<path d="M81.6124 541.2C82.5261 540.948 83.4632 540.791 84.4089 540.731C84.8696 540.731 85.3114 540.914 85.6371 541.239C85.9629 541.565 86.1459 542.007 86.1459 542.468C86.0873 543.428 85.9182 544.378 85.6422 545.299C85.5032 545.785 85.3469 546.237 85.1906 546.654C84.6886 547.873 84.5092 549.201 84.6695 550.51C84.9705 553.163 85.1271 555.83 85.1385 558.5C85.1267 561.901 84.8712 565.297 84.3742 568.661C84.9171 569.626 85.3428 570.652 85.6422 571.718C85.7811 572.239 85.9027 572.726 85.9896 573.195C86.0764 573.664 86.1112 574.115 86.1459 574.515C86.1459 574.975 85.9629 575.417 85.6371 575.743C85.3114 576.069 84.8696 576.252 84.4089 576.252C83.4616 576.194 82.5237 576.031 81.6124 575.765C80.2392 575.373 78.7924 575.314 77.3916 575.592C73.6368 576.285 69.7866 576.285 66.0318 575.592C64.6678 575.34 63.264 575.412 61.9326 575.8C60.981 576.07 60.0022 576.233 59.0145 576.286C58.5538 576.286 58.112 576.103 57.7862 575.778C57.4605 575.452 57.2775 575.01 57.2775 574.549C57.3068 574.101 57.359 573.655 57.4338 573.212C57.5144 572.719 57.6246 572.232 57.7638 571.753C57.9028 571.267 58.0591 570.815 58.2154 570.398C58.7158 569.172 58.8952 567.839 58.7365 566.525C58.4349 563.872 58.2784 561.204 58.2676 558.535C58.2789 555.865 58.4355 553.197 58.7365 550.545C58.8969 549.236 58.7174 547.908 58.2154 546.688C58.0591 546.272 57.9028 545.82 57.7638 545.334C57.5011 544.41 57.338 543.461 57.2775 542.502C57.2621 542.27 57.2965 542.038 57.3784 541.82C57.4603 541.602 57.5877 541.405 57.7521 541.24C57.9166 541.076 58.1143 540.948 58.332 540.866C58.5497 540.784 58.7824 540.75 59.0145 540.765C59.9657 540.828 60.9083 540.985 61.8283 541.234C63.1817 541.634 64.6106 541.705 65.9971 541.443C67.8709 541.099 69.7719 540.925 71.677 540.922C73.582 540.926 75.4829 541.1 77.3568 541.443C78.7491 541.704 80.1834 541.632 81.5429 541.234L81.6124 541.2Z" fill="#70BBA9"/>
<path opacity="0.15" d="M84.4091 540.731C84.8698 540.731 85.3116 540.914 85.6373 541.24C85.9631 541.565 86.1461 542.007 86.1461 542.468C86.0874 543.428 85.9184 544.378 85.6424 545.299C85.5034 545.786 85.3471 546.237 85.1907 546.654C84.6888 547.873 84.5093 549.201 84.6697 550.51C84.9707 553.163 85.1273 555.83 85.1386 558.5C85.1268 561.901 84.8714 565.297 84.3744 568.661C84.9173 569.626 85.343 570.653 85.6424 571.718C85.7813 572.24 85.9029 572.726 85.9898 573.195C86.0766 573.664 86.1113 574.115 86.1461 574.515C86.1461 574.976 85.9631 575.417 85.6373 575.743C85.3116 576.069 84.8698 576.252 84.4091 576.252C83.737 576.212 83.0691 576.119 82.4116 575.974C82.642 575.802 82.8261 575.575 82.9474 575.315C83.0686 575.054 83.1233 574.767 83.1064 574.48C83.1064 574.081 83.1064 573.629 82.9501 573.16C82.8677 572.662 82.7575 572.169 82.62 571.684C82.3207 570.618 81.895 569.592 81.3521 568.627C81.8491 565.262 82.1045 561.866 82.1163 558.465C82.105 555.796 81.9484 553.128 81.6473 550.475C81.487 549.167 81.6665 547.839 82.1684 546.619C82.3248 546.202 82.4811 545.751 82.62 545.264C82.8828 544.341 83.0459 543.392 83.1064 542.433C83.1155 542.15 83.0554 541.87 82.9313 541.615C82.8072 541.361 82.6228 541.141 82.3942 540.974C83.0585 540.841 83.7322 540.759 84.4091 540.731Z" fill="black"/>
<path opacity="0.45" d="M59.4487 542.468C59.5092 543.426 59.6723 544.375 59.935 545.299C60.074 545.785 60.2303 546.237 60.3867 546.654C60.9023 547.869 61.088 549.199 60.9251 550.51C60.6091 553.162 60.4467 555.829 60.4388 558.5C60.4462 561.17 60.6085 563.838 60.9251 566.49C61.087 567.806 60.9014 569.141 60.3867 570.363C60.2303 570.78 60.074 571.232 59.935 571.718C59.7958 572.197 59.6856 572.685 59.605 573.177C59.529 573.632 59.4769 574.09 59.4487 574.549C59.4333 574.878 59.5117 575.205 59.6747 575.491C59.8376 575.777 60.0785 576.01 60.3693 576.165C59.9201 576.229 59.4679 576.27 59.0145 576.286C58.5538 576.286 58.112 576.103 57.7862 575.778C57.4605 575.452 57.2775 575.01 57.2775 574.549C57.3068 574.101 57.359 573.655 57.4338 573.212C57.5144 572.719 57.6246 572.232 57.7638 571.753C57.9028 571.267 58.0591 570.815 58.2154 570.398C58.7158 569.172 58.8952 567.839 58.7365 566.525C58.4349 563.872 58.2784 561.204 58.2676 558.535C58.2789 555.865 58.4355 553.197 58.7365 550.545C58.8969 549.236 58.7174 547.908 58.2154 546.688C58.0591 546.272 57.9028 545.82 57.7638 545.334C57.5011 544.41 57.338 543.461 57.2775 542.502C57.2621 542.27 57.2965 542.038 57.3784 541.82C57.4603 541.602 57.5877 541.405 57.7521 541.24C57.9166 541.076 58.1143 540.948 58.332 540.866C58.5497 540.784 58.7824 540.75 59.0145 540.765C59.4685 540.794 59.9207 540.846 60.3693 540.922C60.0893 541.071 59.8555 541.294 59.6932 541.566C59.5309 541.839 59.4464 542.15 59.4487 542.468Z" fill="white"/>
<path d="M53.0742 527.321C52.7872 527.491 52.5396 527.719 52.348 527.992C52.1563 528.264 52.0249 528.575 51.9625 528.902C51.7943 529.883 51.7187 530.877 51.7367 531.872L51.8583 533.366C52.0053 534.539 51.8683 535.731 51.4588 536.84C50.495 539.362 49.6773 541.936 49.0097 544.552C48.3546 547.167 47.8501 549.817 47.4985 552.49C47.3393 553.691 46.8792 554.832 46.1611 555.808C45.8563 556.245 45.5835 556.703 45.3447 557.18C44.8443 558.046 44.4312 558.959 44.1114 559.907C44.0096 560.223 43.977 560.557 44.016 560.887C44.0549 561.217 44.1645 561.534 44.3372 561.818C44.5022 562.098 44.7257 562.339 44.9925 562.525C45.2593 562.711 45.5631 562.837 45.8831 562.894C46.8676 563.08 47.8696 563.156 48.8707 563.12C50.1859 563.082 51.4926 563.344 52.6921 563.885C54.4094 564.674 56.1941 565.307 58.0245 565.778L58.0245 566.629C58.1529 567.808 57.9919 569 57.5556 570.103C57.3596 570.559 57.1971 571.03 57.0692 571.51C56.7904 572.473 56.6157 573.463 56.5481 574.463C56.5363 574.783 56.5903 575.103 56.7068 575.401C56.8233 575.7 56.9999 575.972 57.2255 576.2C57.456 576.421 57.7285 576.593 58.0269 576.706C58.3253 576.82 58.6435 576.872 58.9625 576.86C59.9668 576.791 60.9618 576.622 61.9327 576.356C63.2324 576.004 64.5992 575.98 65.9104 576.286C69.7616 577.011 73.7142 577.011 77.5654 576.286C78.8661 576.043 80.2062 576.114 81.4736 576.495C82.4321 576.764 83.4158 576.932 84.4091 576.999C84.7294 577.009 85.0486 576.955 85.3472 576.839C85.6458 576.722 85.9176 576.546 86.146 576.321C86.3703 576.093 86.5448 575.821 86.6584 575.522C86.772 575.223 86.8223 574.904 86.8061 574.584C86.7256 573.549 86.5394 572.525 86.2503 571.527C85.9465 570.49 85.5331 569.489 85.017 568.54C85.5045 565.215 85.7483 561.86 85.7465 558.5C85.7427 555.807 85.5862 553.116 85.2776 550.44C85.1468 549.26 85.314 548.066 85.7639 546.966C85.9376 546.515 86.0939 546.046 86.2503 545.542C86.5149 544.577 86.6836 543.588 86.754 542.589L86.754 542.433C86.7518 541.829 86.5151 541.25 86.0939 540.818C85.8655 540.593 85.5937 540.417 85.2951 540.3C84.9965 540.184 84.6773 540.129 84.357 540.14C83.3644 540.212 82.3812 540.381 81.4215 540.644C80.5753 540.886 79.6956 540.992 78.816 540.957L79.2155 540.349C79.5153 539.947 79.7936 539.529 80.0493 539.098C80.5352 538.221 80.9421 537.303 81.2652 536.354C81.3338 536.116 81.3689 535.871 81.3694 535.624C81.373 535.089 81.1863 534.57 80.8428 534.159C80.4992 533.749 80.021 533.474 79.4935 533.383C78.5088 533.198 77.5075 533.117 76.5059 533.14C75.1913 533.192 73.8827 532.937 72.6845 532.393C70.9072 531.548 69.0514 530.879 67.1436 530.396C65.2546 529.912 63.3235 529.609 61.3769 529.493C60.1142 529.4 58.887 529.032 57.7814 528.416L57.6424 528.311C56.7922 527.837 55.9031 527.436 54.9848 527.113C54.6695 527.012 54.3365 526.978 54.0074 527.014C53.6782 527.05 53.3603 527.155 53.0742 527.321ZM85.2255 541.669C85.3206 541.771 85.3943 541.891 85.442 542.023C85.4898 542.154 85.5106 542.293 85.5034 542.433C85.4457 543.309 85.2943 544.177 85.0518 545.021C84.9128 545.49 84.7565 545.924 84.6001 546.324C84.1879 547.339 83.9756 548.424 83.9748 549.52C83.9483 549.844 83.9483 550.169 83.9748 550.493C84.2764 553.122 84.4272 555.766 84.4265 558.413C84.4307 561.785 84.181 565.153 83.6796 568.488C83.6289 568.622 83.6289 568.77 83.6796 568.904C84.2056 569.818 84.6197 570.792 84.9128 571.805C85.2138 572.694 85.4119 573.615 85.5034 574.55C85.5116 574.689 85.4913 574.829 85.4435 574.96C85.3957 575.092 85.3215 575.212 85.2255 575.314C85.1334 575.41 85.023 575.488 84.9008 575.542C84.7785 575.595 84.6468 575.624 84.5133 575.626C83.6084 575.569 82.7119 575.418 81.8384 575.175C80.3778 574.745 78.836 574.667 77.3396 574.949C75.5057 575.283 73.6455 575.452 71.7813 575.453C69.9163 575.455 68.0552 575.281 66.223 574.932C64.7253 574.656 63.1835 574.739 61.7243 575.175C60.8507 575.418 59.9543 575.569 59.0494 575.626C58.9082 575.636 58.7666 575.614 58.6346 575.563C58.5026 575.512 58.3833 575.433 58.2851 575.331C58.1693 575.237 58.0763 575.118 58.0131 574.982C57.9499 574.847 57.9182 574.699 57.9203 574.55C58.0014 573.647 58.182 572.755 58.4588 571.892C58.5773 571.455 58.7223 571.026 58.893 570.607C59.4258 569.28 59.6227 567.842 59.4662 566.421C59.1583 563.791 59.0017 561.147 58.9972 558.5C59.0022 555.853 59.1588 553.208 59.4662 550.579C59.6198 549.164 59.4229 547.732 58.893 546.411C58.7189 545.957 58.5739 545.493 58.4588 545.021C58.2043 544.149 58.047 543.252 57.9898 542.346C57.9767 542.205 57.9965 542.062 58.0477 541.929C58.099 541.797 58.1802 541.678 58.2851 541.582C58.3833 541.48 58.5026 541.401 58.6346 541.35C58.7666 541.299 58.9082 541.277 59.0494 541.287C59.9591 541.351 60.8607 541.502 61.7417 541.738C63.1948 542.175 64.7312 542.258 66.223 541.981C68.0554 541.634 69.9163 541.46 71.7813 541.46C73.6463 541.459 75.5073 541.633 77.3396 541.981L77.7912 541.981C79.1232 542.162 80.4782 542.061 81.7689 541.686C82.6708 541.49 83.5903 541.385 84.5133 541.373C84.7804 541.374 85.0366 541.48 85.2255 541.669ZM54.5332 528.364C55.3777 528.634 56.1971 528.977 56.9824 529.388C58.2868 530.164 59.7578 530.617 61.2727 530.708C63.1352 530.84 64.9831 531.131 66.7962 531.577C68.587 532.041 70.3313 532.669 72.0071 533.453C73.3944 534.088 74.9122 534.385 76.4364 534.321C77.3991 534.306 78.3605 534.399 79.3024 534.599C79.444 534.619 79.5789 534.672 79.6965 534.754C79.8141 534.835 79.9111 534.943 79.9798 535.068C80.0576 535.185 80.1061 535.318 80.1212 535.457C80.1363 535.596 80.1176 535.737 80.0667 535.867C79.7901 536.745 79.4172 537.59 78.955 538.386C78.734 538.771 78.4904 539.142 78.2255 539.498C77.9374 539.89 77.6873 540.309 77.4786 540.748C75.6053 540.4 73.704 540.226 71.7987 540.227C69.8526 540.232 67.911 540.413 65.9972 540.766C64.6476 541.041 63.2506 540.975 61.9327 540.574C60.973 540.311 59.9898 540.143 58.9972 540.071C58.6767 540.058 58.3569 540.111 58.058 540.228C57.7591 540.344 57.4875 540.522 57.2603 540.748C57.0293 540.972 56.8492 541.243 56.7323 541.543C56.6154 541.843 56.5645 542.164 56.5829 542.485C56.6505 543.485 56.8252 544.475 57.1039 545.438C57.2346 545.923 57.3971 546.399 57.5903 546.862C58.0266 547.965 58.1876 549.157 58.0593 550.336C57.7514 553.012 57.5948 555.703 57.5903 558.396C57.5903 560.376 57.7119 562.321 57.8682 564.232C56.2893 563.826 54.7444 563.298 53.2479 562.651C51.8592 562.019 50.3435 561.716 48.8186 561.765C47.9164 561.788 47.0143 561.718 46.1263 561.557C45.9867 561.531 45.8542 561.476 45.7375 561.395C45.6207 561.314 45.5224 561.21 45.4489 561.088C45.3848 560.962 45.3514 560.822 45.3514 560.68C45.3514 560.538 45.3848 560.398 45.4489 560.272C45.7241 559.399 46.097 558.56 46.5606 557.77C46.7864 557.371 47.0469 556.989 47.2901 556.641C48.1458 555.497 48.6904 554.151 48.8707 552.733C49.2274 550.11 49.7202 547.507 50.3471 544.934C50.9877 542.376 51.7646 539.854 52.6747 537.378C53.1786 536.05 53.3398 534.617 53.1437 533.21C53.1437 532.775 53.1437 532.324 53.0394 531.837C53.0251 530.93 53.0948 530.023 53.2479 529.128C53.2737 528.986 53.3307 528.852 53.4148 528.734C53.4989 528.617 53.608 528.52 53.7342 528.45C53.8506 528.373 53.984 528.324 54.1231 528.309C54.2622 528.294 54.4029 528.313 54.5332 528.364Z" fill="black"/>
<line x1="155.512" y1="421.111" x2="140.512" y2="355.111" stroke="black" stroke-dasharray="4 4"/>
<path d="M106.757 376.35L110.468 372.478C117.428 365.215 126.158 359.887 135.799 357.017L140.856 355.512" stroke="black" stroke-dasharray="4 4"/>
<rect x="28.5" y="248.5" width="46" height="126" fill="#D19F70" fill-opacity="0.3" stroke="black" stroke-dasharray="4 4"/>
<line x1="28" y1="621.5" x2="250" y2="621.5" stroke="#979797" stroke-dasharray="2 2"/>
<line x1="261.5" y1="451" x2="261.5" y2="600" stroke="#979797" stroke-dasharray="2 2"/>
<line x1="15.5" y1="375" x2="15.5" y2="451" stroke="#979797" stroke-dasharray="2 2"/>
<mask id="path-60-outside-2_2702_84277" maskUnits="userSpaceOnUse" x="6.36499" y="393.796" width="17" height="40" fill="black">
<rect fill="white" x="6.36499" y="393.796" width="17" height="40"/>
<path d="M18.0894 425.957C18.0873 426.294 18.0308 426.619 17.92 426.932C17.8092 427.243 17.6292 427.522 17.3799 427.769C17.1306 428.017 16.8004 428.213 16.3891 428.358C15.9779 428.5 15.4729 428.572 14.8742 428.572C14.3245 428.57 13.8334 428.507 13.4009 428.383C12.9662 428.257 12.5976 428.078 12.295 427.846C11.9925 427.612 11.7624 427.332 11.6047 427.006C11.4449 426.68 11.365 426.314 11.365 425.909C11.365 425.473 11.4502 425.087 11.6207 424.752C11.789 424.418 12.018 424.149 12.3078 423.947C12.5976 423.742 12.9225 423.619 13.2826 423.576V424.941C13.0546 424.994 12.8756 425.106 12.7457 425.277C12.6157 425.447 12.5507 425.658 12.5507 425.909C12.5507 426.336 12.7361 426.659 13.1068 426.881C13.4776 427.1 13.9815 427.212 14.6185 427.217V427.172C14.4246 427.074 14.2595 426.942 14.1232 426.775C13.9847 426.607 13.8792 426.416 13.8068 426.203C13.7322 425.988 13.6949 425.761 13.6949 425.523C13.6949 425.135 13.7865 424.79 13.9697 424.487C14.1509 424.185 14.4001 423.946 14.7176 423.771C15.0351 423.597 15.3984 423.509 15.8075 423.509C16.2506 423.509 16.6448 423.612 16.99 423.819C17.3352 424.024 17.6058 424.31 17.8018 424.679C17.9957 425.045 18.0916 425.472 18.0894 425.957ZM17.0028 425.964C17.0028 425.751 16.9516 425.56 16.8494 425.392C16.7471 425.223 16.6086 425.091 16.4339 424.995C16.2592 424.899 16.0631 424.851 15.8458 424.851C15.6285 424.851 15.4335 424.899 15.2609 424.995C15.0884 425.089 14.9509 425.219 14.8487 425.385C14.7464 425.551 14.6952 425.741 14.6952 425.954C14.6952 426.114 14.7251 426.262 14.7847 426.398C14.8444 426.533 14.9275 426.651 15.034 426.753C15.1406 426.853 15.2641 426.932 15.4048 426.99C15.5433 427.047 15.6913 427.076 15.849 427.076C16.0599 427.076 16.2528 427.028 16.4275 426.932C16.6022 426.834 16.7418 426.702 16.8462 426.536C16.9506 426.367 17.0028 426.177 17.0028 425.964Z"/>
<path d="M18.0894 419.282C18.0894 419.734 18.0063 420.137 17.8401 420.49C17.6739 420.842 17.4449 421.121 17.153 421.328C16.8611 421.534 16.5266 421.642 16.1494 421.651V420.308C16.403 420.293 16.6086 420.187 16.7663 419.989C16.9239 419.791 17.0028 419.555 17.0028 419.282C17.0028 419.065 16.9548 418.873 16.859 418.707C16.7609 418.539 16.6256 418.408 16.4531 418.314C16.2783 418.218 16.0781 418.17 15.8522 418.17C15.6221 418.17 15.4197 418.219 15.245 418.317C15.0702 418.413 14.9339 418.546 14.8359 418.717C14.7379 418.887 14.6878 419.082 14.6857 419.302C14.6857 419.493 14.7251 419.68 14.8039 419.861C14.8827 420.04 14.9903 420.179 15.1267 420.28L14.9062 421.51L11.4545 421.2L11.4545 417.199H12.5859L12.5859 420.059L14.2254 420.228V420.19C14.0635 420.075 13.9293 419.901 13.8227 419.669C13.7162 419.437 13.6629 419.177 13.6629 418.889C13.6629 418.495 13.7556 418.144 13.941 417.835C14.1264 417.526 14.381 417.282 14.7048 417.103C15.0266 416.924 15.3973 416.835 15.817 416.837C16.2581 416.835 16.6501 416.938 16.9932 417.144C17.3341 417.349 17.6026 417.635 17.7986 418.004C17.9925 418.37 18.0894 418.797 18.0894 419.282Z"/>
<path d="M18.0958 409.848C18.0958 410.351 17.9893 410.784 17.7762 411.146C17.561 411.506 17.2627 411.783 16.8813 411.977C16.4999 412.169 16.061 412.265 15.5646 412.265C15.0617 412.265 14.6207 412.168 14.2414 411.974C13.86 411.778 13.5628 411.5 13.3497 411.14C13.1345 410.779 13.0269 410.351 13.0269 409.855C13.0269 409.426 13.1047 409.051 13.2602 408.73C13.4158 408.408 13.6342 408.153 13.9154 407.966C14.1967 407.778 14.5269 407.675 14.9062 407.656L14.9062 408.941C14.6612 408.977 14.4641 409.073 14.3149 409.228C14.1636 409.382 14.088 409.583 14.088 409.832C14.088 410.043 14.1455 410.228 14.2606 410.385C14.3735 410.541 14.5386 410.662 14.756 410.75C14.9733 410.837 15.2364 410.881 15.5454 410.881C15.8586 410.881 16.1249 410.838 16.3444 410.753C16.5639 410.665 16.7311 410.543 16.8462 410.385C16.9612 410.228 17.0188 410.043 17.0188 409.832C17.0188 409.677 16.9868 409.537 16.9229 409.414C16.859 409.288 16.7663 409.185 16.6448 409.104C16.5212 409.021 16.3732 408.966 16.2006 408.941V407.656C16.5756 407.677 16.9058 407.779 17.1913 407.963C17.4747 408.144 17.6963 408.394 17.8561 408.714C18.0159 409.033 18.0958 409.412 18.0958 409.848Z"/>
<path d="M17.9999 405.929L13.0908 405.929L13.0908 404.632H13.957V404.574C13.6693 404.472 13.4424 404.301 13.2762 404.063C13.11 403.824 13.0269 403.539 13.0269 403.206C13.0269 402.87 13.1111 402.583 13.2794 402.346C13.4456 402.11 13.6715 401.952 13.957 401.873V401.822C13.6757 401.722 13.4509 401.541 13.2826 401.279C13.1121 401.015 13.0269 400.703 13.0269 400.343C13.0269 399.884 13.1729 399.513 13.4648 399.227C13.7545 398.939 14.1658 398.796 14.6984 398.796L17.9999 398.796L17.9999 400.154L14.9669 400.154C14.6942 400.154 14.4896 400.226 14.3533 400.371C14.2169 400.516 14.1487 400.697 14.1487 400.915C14.1487 401.162 14.2276 401.355 14.3852 401.493C14.5408 401.632 14.7464 401.701 15.0021 401.701L17.9999 401.701V403.021H14.9381C14.6974 403.021 14.5056 403.09 14.3629 403.229C14.2201 403.365 14.1487 403.545 14.1487 403.769C14.1487 403.92 14.1871 404.056 14.2638 404.178C14.3384 404.297 14.4438 404.392 14.5802 404.462C14.7144 404.533 14.8721 404.568 15.0532 404.568H17.9999V405.929Z"/>
</mask>
<path d="M18.0894 425.957C18.0873 426.294 18.0308 426.619 17.92 426.932C17.8092 427.243 17.6292 427.522 17.3799 427.769C17.1306 428.017 16.8004 428.213 16.3891 428.358C15.9779 428.5 15.4729 428.572 14.8742 428.572C14.3245 428.57 13.8334 428.507 13.4009 428.383C12.9662 428.257 12.5976 428.078 12.295 427.846C11.9925 427.612 11.7624 427.332 11.6047 427.006C11.4449 426.68 11.365 426.314 11.365 425.909C11.365 425.473 11.4502 425.087 11.6207 424.752C11.789 424.418 12.018 424.149 12.3078 423.947C12.5976 423.742 12.9225 423.619 13.2826 423.576V424.941C13.0546 424.994 12.8756 425.106 12.7457 425.277C12.6157 425.447 12.5507 425.658 12.5507 425.909C12.5507 426.336 12.7361 426.659 13.1068 426.881C13.4776 427.1 13.9815 427.212 14.6185 427.217V427.172C14.4246 427.074 14.2595 426.942 14.1232 426.775C13.9847 426.607 13.8792 426.416 13.8068 426.203C13.7322 425.988 13.6949 425.761 13.6949 425.523C13.6949 425.135 13.7865 424.79 13.9697 424.487C14.1509 424.185 14.4001 423.946 14.7176 423.771C15.0351 423.597 15.3984 423.509 15.8075 423.509C16.2506 423.509 16.6448 423.612 16.99 423.819C17.3352 424.024 17.6058 424.31 17.8018 424.679C17.9957 425.045 18.0916 425.472 18.0894 425.957ZM17.0028 425.964C17.0028 425.751 16.9516 425.56 16.8494 425.392C16.7471 425.223 16.6086 425.091 16.4339 424.995C16.2592 424.899 16.0631 424.851 15.8458 424.851C15.6285 424.851 15.4335 424.899 15.2609 424.995C15.0884 425.089 14.9509 425.219 14.8487 425.385C14.7464 425.551 14.6952 425.741 14.6952 425.954C14.6952 426.114 14.7251 426.262 14.7847 426.398C14.8444 426.533 14.9275 426.651 15.034 426.753C15.1406 426.853 15.2641 426.932 15.4048 426.99C15.5433 427.047 15.6913 427.076 15.849 427.076C16.0599 427.076 16.2528 427.028 16.4275 426.932C16.6022 426.834 16.7418 426.702 16.8462 426.536C16.9506 426.367 17.0028 426.177 17.0028 425.964Z" fill="black"/>
<path d="M18.0894 419.282C18.0894 419.734 18.0063 420.137 17.8401 420.49C17.6739 420.842 17.4449 421.121 17.153 421.328C16.8611 421.534 16.5266 421.642 16.1494 421.651V420.308C16.403 420.293 16.6086 420.187 16.7663 419.989C16.9239 419.791 17.0028 419.555 17.0028 419.282C17.0028 419.065 16.9548 418.873 16.859 418.707C16.7609 418.539 16.6256 418.408 16.4531 418.314C16.2783 418.218 16.0781 418.17 15.8522 418.17C15.6221 418.17 15.4197 418.219 15.245 418.317C15.0702 418.413 14.9339 418.546 14.8359 418.717C14.7379 418.887 14.6878 419.082 14.6857 419.302C14.6857 419.493 14.7251 419.68 14.8039 419.861C14.8827 420.04 14.9903 420.179 15.1267 420.28L14.9062 421.51L11.4545 421.2L11.4545 417.199H12.5859L12.5859 420.059L14.2254 420.228V420.19C14.0635 420.075 13.9293 419.901 13.8227 419.669C13.7162 419.437 13.6629 419.177 13.6629 418.889C13.6629 418.495 13.7556 418.144 13.941 417.835C14.1264 417.526 14.381 417.282 14.7048 417.103C15.0266 416.924 15.3973 416.835 15.817 416.837C16.2581 416.835 16.6501 416.938 16.9932 417.144C17.3341 417.349 17.6026 417.635 17.7986 418.004C17.9925 418.37 18.0894 418.797 18.0894 419.282Z" fill="black"/>
<path d="M18.0958 409.848C18.0958 410.351 17.9893 410.784 17.7762 411.146C17.561 411.506 17.2627 411.783 16.8813 411.977C16.4999 412.169 16.061 412.265 15.5646 412.265C15.0617 412.265 14.6207 412.168 14.2414 411.974C13.86 411.778 13.5628 411.5 13.3497 411.14C13.1345 410.779 13.0269 410.351 13.0269 409.855C13.0269 409.426 13.1047 409.051 13.2602 408.73C13.4158 408.408 13.6342 408.153 13.9154 407.966C14.1967 407.778 14.5269 407.675 14.9062 407.656L14.9062 408.941C14.6612 408.977 14.4641 409.073 14.3149 409.228C14.1636 409.382 14.088 409.583 14.088 409.832C14.088 410.043 14.1455 410.228 14.2606 410.385C14.3735 410.541 14.5386 410.662 14.756 410.75C14.9733 410.837 15.2364 410.881 15.5454 410.881C15.8586 410.881 16.1249 410.838 16.3444 410.753C16.5639 410.665 16.7311 410.543 16.8462 410.385C16.9612 410.228 17.0188 410.043 17.0188 409.832C17.0188 409.677 16.9868 409.537 16.9229 409.414C16.859 409.288 16.7663 409.185 16.6448 409.104C16.5212 409.021 16.3732 408.966 16.2006 408.941V407.656C16.5756 407.677 16.9058 407.779 17.1913 407.963C17.4747 408.144 17.6963 408.394 17.8561 408.714C18.0159 409.033 18.0958 409.412 18.0958 409.848Z" fill="black"/>
<path d="M17.9999 405.929L13.0908 405.929L13.0908 404.632H13.957V404.574C13.6693 404.472 13.4424 404.301 13.2762 404.063C13.11 403.824 13.0269 403.539 13.0269 403.206C13.0269 402.87 13.1111 402.583 13.2794 402.346C13.4456 402.11 13.6715 401.952 13.957 401.873V401.822C13.6757 401.722 13.4509 401.541 13.2826 401.279C13.1121 401.015 13.0269 400.703 13.0269 400.343C13.0269 399.884 13.1729 399.513 13.4648 399.227C13.7545 398.939 14.1658 398.796 14.6984 398.796L17.9999 398.796L17.9999 400.154L14.9669 400.154C14.6942 400.154 14.4896 400.226 14.3533 400.371C14.2169 400.516 14.1487 400.697 14.1487 400.915C14.1487 401.162 14.2276 401.355 14.3852 401.493C14.5408 401.632 14.7464 401.701 15.0021 401.701L17.9999 401.701V403.021H14.9381C14.6974 403.021 14.5056 403.09 14.3629 403.229C14.2201 403.365 14.1487 403.545 14.1487 403.769C14.1487 403.92 14.1871 404.056 14.2638 404.178C14.3384 404.297 14.4438 404.392 14.5802 404.462C14.7144 404.533 14.8721 404.568 15.0532 404.568H17.9999V405.929Z" fill="black"/>
<path d="M18.0894 425.957C18.0873 426.294 18.0308 426.619 17.92 426.932C17.8092 427.243 17.6292 427.522 17.3799 427.769C17.1306 428.017 16.8004 428.213 16.3891 428.358C15.9779 428.5 15.4729 428.572 14.8742 428.572C14.3245 428.57 13.8334 428.507 13.4009 428.383C12.9662 428.257 12.5976 428.078 12.295 427.846C11.9925 427.612 11.7624 427.332 11.6047 427.006C11.4449 426.68 11.365 426.314 11.365 425.909C11.365 425.473 11.4502 425.087 11.6207 424.752C11.789 424.418 12.018 424.149 12.3078 423.947C12.5976 423.742 12.9225 423.619 13.2826 423.576V424.941C13.0546 424.994 12.8756 425.106 12.7457 425.277C12.6157 425.447 12.5507 425.658 12.5507 425.909C12.5507 426.336 12.7361 426.659 13.1068 426.881C13.4776 427.1 13.9815 427.212 14.6185 427.217V427.172C14.4246 427.074 14.2595 426.942 14.1232 426.775C13.9847 426.607 13.8792 426.416 13.8068 426.203C13.7322 425.988 13.6949 425.761 13.6949 425.523C13.6949 425.135 13.7865 424.79 13.9697 424.487C14.1509 424.185 14.4001 423.946 14.7176 423.771C15.0351 423.597 15.3984 423.509 15.8075 423.509C16.2506 423.509 16.6448 423.612 16.99 423.819C17.3352 424.024 17.6058 424.31 17.8018 424.679C17.9957 425.045 18.0916 425.472 18.0894 425.957ZM17.0028 425.964C17.0028 425.751 16.9516 425.56 16.8494 425.392C16.7471 425.223 16.6086 425.091 16.4339 424.995C16.2592 424.899 16.0631 424.851 15.8458 424.851C15.6285 424.851 15.4335 424.899 15.2609 424.995C15.0884 425.089 14.9509 425.219 14.8487 425.385C14.7464 425.551 14.6952 425.741 14.6952 425.954C14.6952 426.114 14.7251 426.262 14.7847 426.398C14.8444 426.533 14.9275 426.651 15.034 426.753C15.1406 426.853 15.2641 426.932 15.4048 426.99C15.5433 427.047 15.6913 427.076 15.849 427.076C16.0599 427.076 16.2528 427.028 16.4275 426.932C16.6022 426.834 16.7418 426.702 16.8462 426.536C16.9506 426.367 17.0028 426.177 17.0028 425.964Z" stroke="#FBF6F1" stroke-width="10" mask="url(#path-60-outside-2_2702_84277)"/>
<path d="M18.0894 419.282C18.0894 419.734 18.0063 420.137 17.8401 420.49C17.6739 420.842 17.4449 421.121 17.153 421.328C16.8611 421.534 16.5266 421.642 16.1494 421.651V420.308C16.403 420.293 16.6086 420.187 16.7663 419.989C16.9239 419.791 17.0028 419.555 17.0028 419.282C17.0028 419.065 16.9548 418.873 16.859 418.707C16.7609 418.539 16.6256 418.408 16.4531 418.314C16.2783 418.218 16.0781 418.17 15.8522 418.17C15.6221 418.17 15.4197 418.219 15.245 418.317C15.0702 418.413 14.9339 418.546 14.8359 418.717C14.7379 418.887 14.6878 419.082 14.6857 419.302C14.6857 419.493 14.7251 419.68 14.8039 419.861C14.8827 420.04 14.9903 420.179 15.1267 420.28L14.9062 421.51L11.4545 421.2L11.4545 417.199H12.5859L12.5859 420.059L14.2254 420.228V420.19C14.0635 420.075 13.9293 419.901 13.8227 419.669C13.7162 419.437 13.6629 419.177 13.6629 418.889C13.6629 418.495 13.7556 418.144 13.941 417.835C14.1264 417.526 14.381 417.282 14.7048 417.103C15.0266 416.924 15.3973 416.835 15.817 416.837C16.2581 416.835 16.6501 416.938 16.9932 417.144C17.3341 417.349 17.6026 417.635 17.7986 418.004C17.9925 418.37 18.0894 418.797 18.0894 419.282Z" stroke="#FBF6F1" stroke-width="10" mask="url(#path-60-outside-2_2702_84277)"/>
<path d="M18.0958 409.848C18.0958 410.351 17.9893 410.784 17.7762 411.146C17.561 411.506 17.2627 411.783 16.8813 411.977C16.4999 412.169 16.061 412.265 15.5646 412.265C15.0617 412.265 14.6207 412.168 14.2414 411.974C13.86 411.778 13.5628 411.5 13.3497 411.14C13.1345 410.779 13.0269 410.351 13.0269 409.855C13.0269 409.426 13.1047 409.051 13.2602 408.73C13.4158 408.408 13.6342 408.153 13.9154 407.966C14.1967 407.778 14.5269 407.675 14.9062 407.656L14.9062 408.941C14.6612 408.977 14.4641 409.073 14.3149 409.228C14.1636 409.382 14.088 409.583 14.088 409.832C14.088 410.043 14.1455 410.228 14.2606 410.385C14.3735 410.541 14.5386 410.662 14.756 410.75C14.9733 410.837 15.2364 410.881 15.5454 410.881C15.8586 410.881 16.1249 410.838 16.3444 410.753C16.5639 410.665 16.7311 410.543 16.8462 410.385C16.9612 410.228 17.0188 410.043 17.0188 409.832C17.0188 409.677 16.9868 409.537 16.9229 409.414C16.859 409.288 16.7663 409.185 16.6448 409.104C16.5212 409.021 16.3732 408.966 16.2006 408.941V407.656C16.5756 407.677 16.9058 407.779 17.1913 407.963C17.4747 408.144 17.6963 408.394 17.8561 408.714C18.0159 409.033 18.0958 409.412 18.0958 409.848Z" stroke="#FBF6F1" stroke-width="10" mask="url(#path-60-outside-2_2702_84277)"/>
<path d="M17.9999 405.929L13.0908 405.929L13.0908 404.632H13.957V404.574C13.6693 404.472 13.4424 404.301 13.2762 404.063C13.11 403.824 13.0269 403.539 13.0269 403.206C13.0269 402.87 13.1111 402.583 13.2794 402.346C13.4456 402.11 13.6715 401.952 13.957 401.873V401.822C13.6757 401.722 13.4509 401.541 13.2826 401.279C13.1121 401.015 13.0269 400.703 13.0269 400.343C13.0269 399.884 13.1729 399.513 13.4648 399.227C13.7545 398.939 14.1658 398.796 14.6984 398.796L17.9999 398.796L17.9999 400.154L14.9669 400.154C14.6942 400.154 14.4896 400.226 14.3533 400.371C14.2169 400.516 14.1487 400.697 14.1487 400.915C14.1487 401.162 14.2276 401.355 14.3852 401.493C14.5408 401.632 14.7464 401.701 15.0021 401.701L17.9999 401.701V403.021H14.9381C14.6974 403.021 14.5056 403.09 14.3629 403.229C14.2201 403.365 14.1487 403.545 14.1487 403.769C14.1487 403.92 14.1871 404.056 14.2638 404.178C14.3384 404.297 14.4438 404.392 14.5802 404.462C14.7144 404.533 14.8721 404.568 15.0532 404.568H17.9999V405.929Z" stroke="#FBF6F1" stroke-width="10" mask="url(#path-60-outside-2_2702_84277)"/>
<mask id="path-61-outside-3_2702_84277" maskUnits="userSpaceOnUse" x="252.365" y="502.984" width="17" height="46" fill="black">
<rect fill="white" x="252.365" y="502.984" width="17" height="46"/>
<path d="M257.454 540.622H264V542.006H258.768V542.044L259.708 543.543H258.48L257.454 541.923L257.454 540.622Z"/>
<path d="M262.849 538.31H261.76L257.454 535.578L257.454 534.638H258.963V535.194L261.689 536.917H261.74V533.034H262.849V538.31ZM264 535.168H262.517L262.034 535.143H257.454L257.454 533.845L264 533.845V535.168Z"/>
<path d="M264.144 528.69C264.142 529.24 264.006 529.713 263.738 530.109C263.469 530.503 263.081 530.807 262.571 531.02C262.062 531.231 261.45 531.335 260.734 531.333C260.02 531.333 259.412 531.228 258.909 531.017C258.406 530.804 258.023 530.5 257.761 530.106C257.497 529.71 257.365 529.238 257.365 528.69C257.365 528.142 257.497 527.672 257.761 527.277C258.026 526.881 258.409 526.576 258.912 526.363C259.413 526.15 260.02 526.045 260.734 526.047C261.452 526.047 262.065 526.153 262.575 526.367C263.084 526.577 263.473 526.88 263.741 527.274C264.01 527.668 264.144 528.14 264.144 528.69ZM262.996 528.69C262.996 528.315 262.808 528.016 262.431 527.792C262.054 527.568 261.488 527.457 260.734 527.46C260.237 527.46 259.824 527.511 259.494 527.613C259.163 527.713 258.915 527.856 258.749 528.041C258.583 528.225 258.5 528.441 258.5 528.69C258.5 529.063 258.686 529.361 259.059 529.585C259.432 529.809 259.99 529.922 260.734 529.924C261.236 529.924 261.656 529.874 261.993 529.774C262.327 529.671 262.579 529.527 262.747 529.342C262.913 529.157 262.996 528.939 262.996 528.69Z"/>
<path d="M264.096 519.036C264.096 519.539 263.989 519.972 263.776 520.334C263.561 520.694 263.263 520.971 262.881 521.165C262.5 521.357 262.061 521.453 261.565 521.453C261.062 521.453 260.621 521.356 260.241 521.162C259.86 520.966 259.563 520.688 259.35 520.328C259.135 519.967 259.027 519.539 259.027 519.043C259.027 518.614 259.105 518.239 259.26 517.918C259.416 517.596 259.634 517.341 259.915 517.154C260.197 516.966 260.527 516.863 260.906 516.844V518.129C260.661 518.165 260.464 518.261 260.315 518.416C260.164 518.57 260.088 518.771 260.088 519.02C260.088 519.231 260.146 519.416 260.261 519.573C260.374 519.729 260.539 519.85 260.756 519.938C260.973 520.025 261.236 520.069 261.545 520.069C261.859 520.069 262.125 520.026 262.344 519.941C262.564 519.853 262.731 519.731 262.846 519.573C262.961 519.416 263.019 519.231 263.019 519.02C263.019 518.865 262.987 518.725 262.923 518.602C262.859 518.476 262.766 518.373 262.645 518.292C262.521 518.209 262.373 518.154 262.201 518.129V516.844C262.576 516.865 262.906 516.967 263.191 517.151C263.475 517.332 263.696 517.582 263.856 517.902C264.016 518.221 264.096 518.6 264.096 519.036Z"/>
<path d="M264 515.117L259.091 515.117V513.82H259.957V513.762C259.669 513.66 259.442 513.489 259.276 513.251C259.11 513.012 259.027 512.727 259.027 512.394C259.027 512.058 259.111 511.771 259.279 511.534C259.446 511.298 259.671 511.14 259.957 511.061V511.01C259.676 510.91 259.451 510.729 259.283 510.467C259.112 510.203 259.027 509.891 259.027 509.531C259.027 509.072 259.173 508.701 259.465 508.415C259.755 508.127 260.166 507.984 260.698 507.984L264 507.984V509.342L260.967 509.342C260.694 509.342 260.49 509.414 260.353 509.559C260.217 509.704 260.149 509.885 260.149 510.103C260.149 510.35 260.228 510.543 260.385 510.681C260.541 510.82 260.746 510.889 261.002 510.889L264 510.889V512.209H260.938C260.697 512.209 260.506 512.278 260.363 512.417C260.22 512.553 260.149 512.733 260.149 512.957C260.149 513.108 260.187 513.244 260.264 513.366C260.338 513.485 260.444 513.58 260.58 513.65C260.714 513.721 260.872 513.756 261.053 513.756H264V515.117Z"/>
</mask>
<path d="M257.454 540.622H264V542.006H258.768V542.044L259.708 543.543H258.48L257.454 541.923L257.454 540.622Z" fill="black"/>
<path d="M262.849 538.31H261.76L257.454 535.578L257.454 534.638H258.963V535.194L261.689 536.917H261.74V533.034H262.849V538.31ZM264 535.168H262.517L262.034 535.143H257.454L257.454 533.845L264 533.845V535.168Z" fill="black"/>
<path d="M264.144 528.69C264.142 529.24 264.006 529.713 263.738 530.109C263.469 530.503 263.081 530.807 262.571 531.02C262.062 531.231 261.45 531.335 260.734 531.333C260.02 531.333 259.412 531.228 258.909 531.017C258.406 530.804 258.023 530.5 257.761 530.106C257.497 529.71 257.365 529.238 257.365 528.69C257.365 528.142 257.497 527.672 257.761 527.277C258.026 526.881 258.409 526.576 258.912 526.363C259.413 526.15 260.02 526.045 260.734 526.047C261.452 526.047 262.065 526.153 262.575 526.367C263.084 526.577 263.473 526.88 263.741 527.274C264.01 527.668 264.144 528.14 264.144 528.69ZM262.996 528.69C262.996 528.315 262.808 528.016 262.431 527.792C262.054 527.568 261.488 527.457 260.734 527.46C260.237 527.46 259.824 527.511 259.494 527.613C259.163 527.713 258.915 527.856 258.749 528.041C258.583 528.225 258.5 528.441 258.5 528.69C258.5 529.063 258.686 529.361 259.059 529.585C259.432 529.809 259.99 529.922 260.734 529.924C261.236 529.924 261.656 529.874 261.993 529.774C262.327 529.671 262.579 529.527 262.747 529.342C262.913 529.157 262.996 528.939 262.996 528.69Z" fill="black"/>
<path d="M264.096 519.036C264.096 519.539 263.989 519.972 263.776 520.334C263.561 520.694 263.263 520.971 262.881 521.165C262.5 521.357 262.061 521.453 261.565 521.453C261.062 521.453 260.621 521.356 260.241 521.162C259.86 520.966 259.563 520.688 259.35 520.328C259.135 519.967 259.027 519.539 259.027 519.043C259.027 518.614 259.105 518.239 259.26 517.918C259.416 517.596 259.634 517.341 259.915 517.154C260.197 516.966 260.527 516.863 260.906 516.844V518.129C260.661 518.165 260.464 518.261 260.315 518.416C260.164 518.57 260.088 518.771 260.088 519.02C260.088 519.231 260.146 519.416 260.261 519.573C260.374 519.729 260.539 519.85 260.756 519.938C260.973 520.025 261.236 520.069 261.545 520.069C261.859 520.069 262.125 520.026 262.344 519.941C262.564 519.853 262.731 519.731 262.846 519.573C262.961 519.416 263.019 519.231 263.019 519.02C263.019 518.865 262.987 518.725 262.923 518.602C262.859 518.476 262.766 518.373 262.645 518.292C262.521 518.209 262.373 518.154 262.201 518.129V516.844C262.576 516.865 262.906 516.967 263.191 517.151C263.475 517.332 263.696 517.582 263.856 517.902C264.016 518.221 264.096 518.6 264.096 519.036Z" fill="black"/>
<path d="M264 515.117L259.091 515.117V513.82H259.957V513.762C259.669 513.66 259.442 513.489 259.276 513.251C259.11 513.012 259.027 512.727 259.027 512.394C259.027 512.058 259.111 511.771 259.279 511.534C259.446 511.298 259.671 511.14 259.957 511.061V511.01C259.676 510.91 259.451 510.729 259.283 510.467C259.112 510.203 259.027 509.891 259.027 509.531C259.027 509.072 259.173 508.701 259.465 508.415C259.755 508.127 260.166 507.984 260.698 507.984L264 507.984V509.342L260.967 509.342C260.694 509.342 260.49 509.414 260.353 509.559C260.217 509.704 260.149 509.885 260.149 510.103C260.149 510.35 260.228 510.543 260.385 510.681C260.541 510.82 260.746 510.889 261.002 510.889L264 510.889V512.209H260.938C260.697 512.209 260.506 512.278 260.363 512.417C260.22 512.553 260.149 512.733 260.149 512.957C260.149 513.108 260.187 513.244 260.264 513.366C260.338 513.485 260.444 513.58 260.58 513.65C260.714 513.721 260.872 513.756 261.053 513.756H264V515.117Z" fill="black"/>
<path d="M257.454 540.622H264V542.006H258.768V542.044L259.708 543.543H258.48L257.454 541.923L257.454 540.622Z" stroke="#FBF6F1" stroke-width="10" mask="url(#path-61-outside-3_2702_84277)"/>
<path d="M262.849 538.31H261.76L257.454 535.578L257.454 534.638H258.963V535.194L261.689 536.917H261.74V533.034H262.849V538.31ZM264 535.168H262.517L262.034 535.143H257.454L257.454 533.845L264 533.845V535.168Z" stroke="#FBF6F1" stroke-width="10" mask="url(#path-61-outside-3_2702_84277)"/>
<path d="M264.144 528.69C264.142 529.24 264.006 529.713 263.738 530.109C263.469 530.503 263.081 530.807 262.571 531.02C262.062 531.231 261.45 531.335 260.734 531.333C260.02 531.333 259.412 531.228 258.909 531.017C258.406 530.804 258.023 530.5 257.761 530.106C257.497 529.71 257.365 529.238 257.365 528.69C257.365 528.142 257.497 527.672 257.761 527.277C258.026 526.881 258.409 526.576 258.912 526.363C259.413 526.15 260.02 526.045 260.734 526.047C261.452 526.047 262.065 526.153 262.575 526.367C263.084 526.577 263.473 526.88 263.741 527.274C264.01 527.668 264.144 528.14 264.144 528.69ZM262.996 528.69C262.996 528.315 262.808 528.016 262.431 527.792C262.054 527.568 261.488 527.457 260.734 527.46C260.237 527.46 259.824 527.511 259.494 527.613C259.163 527.713 258.915 527.856 258.749 528.041C258.583 528.225 258.5 528.441 258.5 528.69C258.5 529.063 258.686 529.361 259.059 529.585C259.432 529.809 259.99 529.922 260.734 529.924C261.236 529.924 261.656 529.874 261.993 529.774C262.327 529.671 262.579 529.527 262.747 529.342C262.913 529.157 262.996 528.939 262.996 528.69Z" stroke="#FBF6F1" stroke-width="10" mask="url(#path-61-outside-3_2702_84277)"/>
<path d="M264.096 519.036C264.096 519.539 263.989 519.972 263.776 520.334C263.561 520.694 263.263 520.971 262.881 521.165C262.5 521.357 262.061 521.453 261.565 521.453C261.062 521.453 260.621 521.356 260.241 521.162C259.86 520.966 259.563 520.688 259.35 520.328C259.135 519.967 259.027 519.539 259.027 519.043C259.027 518.614 259.105 518.239 259.26 517.918C259.416 517.596 259.634 517.341 259.915 517.154C260.197 516.966 260.527 516.863 260.906 516.844V518.129C260.661 518.165 260.464 518.261 260.315 518.416C260.164 518.57 260.088 518.771 260.088 519.02C260.088 519.231 260.146 519.416 260.261 519.573C260.374 519.729 260.539 519.85 260.756 519.938C260.973 520.025 261.236 520.069 261.545 520.069C261.859 520.069 262.125 520.026 262.344 519.941C262.564 519.853 262.731 519.731 262.846 519.573C262.961 519.416 263.019 519.231 263.019 519.02C263.019 518.865 262.987 518.725 262.923 518.602C262.859 518.476 262.766 518.373 262.645 518.292C262.521 518.209 262.373 518.154 262.201 518.129V516.844C262.576 516.865 262.906 516.967 263.191 517.151C263.475 517.332 263.696 517.582 263.856 517.902C264.016 518.221 264.096 518.6 264.096 519.036Z" stroke="#FBF6F1" stroke-width="10" mask="url(#path-61-outside-3_2702_84277)"/>
<path d="M264 515.117L259.091 515.117V513.82H259.957V513.762C259.669 513.66 259.442 513.489 259.276 513.251C259.11 513.012 259.027 512.727 259.027 512.394C259.027 512.058 259.111 511.771 259.279 511.534C259.446 511.298 259.671 511.14 259.957 511.061V511.01C259.676 510.91 259.451 510.729 259.283 510.467C259.112 510.203 259.027 509.891 259.027 509.531C259.027 509.072 259.173 508.701 259.465 508.415C259.755 508.127 260.166 507.984 260.698 507.984L264 507.984V509.342L260.967 509.342C260.694 509.342 260.49 509.414 260.353 509.559C260.217 509.704 260.149 509.885 260.149 510.103C260.149 510.35 260.228 510.543 260.385 510.681C260.541 510.82 260.746 510.889 261.002 510.889L264 510.889V512.209H260.938C260.697 512.209 260.506 512.278 260.363 512.417C260.22 512.553 260.149 512.733 260.149 512.957C260.149 513.108 260.187 513.244 260.264 513.366C260.338 513.485 260.444 513.58 260.58 513.65C260.714 513.721 260.872 513.756 261.053 513.756H264V515.117Z" stroke="#FBF6F1" stroke-width="10" mask="url(#path-61-outside-3_2702_84277)"/>
<mask id="path-62-outside-4_2702_84277" maskUnits="userSpaceOnUse" x="116.457" y="612.365" width="46" height="17" fill="black">
<rect fill="white" x="116.457" y="612.365" width="46" height="17"/>
<path d="M124.378 617.455V624H122.994V618.768H122.956L121.457 619.708V618.48L123.077 617.455H124.378Z"/>
<path d="M129.157 617.365C129.494 617.365 129.818 617.421 130.129 617.534C130.442 617.647 130.721 617.827 130.966 618.075C131.213 618.322 131.408 618.65 131.551 619.059C131.696 619.466 131.769 619.966 131.771 620.558C131.771 621.114 131.709 621.61 131.583 622.047C131.459 622.482 131.281 622.852 131.049 623.156C130.817 623.461 130.537 623.693 130.209 623.853C129.88 624.011 129.514 624.089 129.109 624.089C128.672 624.089 128.287 624.005 127.952 623.837C127.618 623.667 127.348 623.435 127.144 623.143C126.941 622.849 126.819 622.519 126.776 622.153H128.141C128.194 622.391 128.306 622.577 128.476 622.709C128.647 622.839 128.858 622.904 129.109 622.904C129.535 622.904 129.859 622.718 130.081 622.348C130.302 621.975 130.414 621.464 130.416 620.817H130.372C130.274 621.008 130.141 621.174 129.975 621.312C129.809 621.448 129.618 621.554 129.403 621.629C129.19 621.703 128.963 621.74 128.722 621.74C128.337 621.74 127.993 621.65 127.69 621.469C127.388 621.288 127.149 621.038 126.974 620.721C126.8 620.403 126.712 620.041 126.712 619.634C126.71 619.195 126.811 618.804 127.016 618.461C127.22 618.118 127.506 617.85 127.872 617.656C128.241 617.46 128.669 617.363 129.157 617.365ZM129.167 618.452C128.952 618.452 128.76 618.503 128.591 618.605C128.425 618.707 128.293 618.845 128.195 619.017C128.099 619.19 128.052 619.383 128.054 619.596C128.054 619.811 128.101 620.005 128.195 620.178C128.291 620.348 128.421 620.484 128.585 620.587C128.751 620.687 128.941 620.737 129.154 620.737C129.314 620.737 129.462 620.707 129.598 620.647C129.735 620.588 129.853 620.506 129.953 620.401C130.055 620.295 130.135 620.172 130.193 620.034C130.25 619.895 130.279 619.748 130.279 619.593C130.277 619.386 130.228 619.196 130.132 619.024C130.036 618.851 129.904 618.713 129.736 618.608C129.567 618.504 129.378 618.452 129.167 618.452Z"/>
<path d="M136.097 624.089C135.761 624.087 135.436 624.031 135.123 623.92C134.811 623.809 134.532 623.629 134.285 623.38C134.038 623.131 133.842 622.8 133.697 622.389C133.554 621.978 133.483 621.473 133.483 620.874C133.485 620.325 133.548 619.833 133.672 619.401C133.797 618.966 133.976 618.598 134.208 618.295C134.443 617.993 134.723 617.762 135.049 617.605C135.375 617.445 135.74 617.365 136.145 617.365C136.582 617.365 136.968 617.45 137.302 617.621C137.637 617.789 137.905 618.018 138.108 618.308C138.312 618.598 138.436 618.923 138.478 619.283H137.114C137.06 619.055 136.949 618.876 136.778 618.746C136.608 618.616 136.397 618.551 136.145 618.551C135.719 618.551 135.395 618.736 135.174 619.107C134.954 619.478 134.842 619.982 134.838 620.619H134.883C134.981 620.425 135.113 620.26 135.279 620.123C135.447 619.985 135.638 619.879 135.851 619.807C136.066 619.732 136.293 619.695 136.532 619.695C136.92 619.695 137.265 619.787 137.568 619.97C137.87 620.151 138.109 620.4 138.283 620.718C138.458 621.035 138.545 621.398 138.545 621.807C138.545 622.251 138.442 622.645 138.235 622.99C138.031 623.335 137.744 623.606 137.376 623.802C137.009 623.996 136.583 624.092 136.097 624.089ZM136.091 623.003C136.304 623.003 136.495 622.952 136.663 622.849C136.831 622.747 136.963 622.609 137.059 622.434C137.155 622.259 137.203 622.063 137.203 621.846C137.203 621.629 137.155 621.434 137.059 621.261C136.966 621.088 136.836 620.951 136.669 620.849C136.503 620.746 136.314 620.695 136.101 620.695C135.941 620.695 135.793 620.725 135.656 620.785C135.522 620.844 135.404 620.928 135.302 621.034C135.201 621.141 135.123 621.264 135.065 621.405C135.007 621.543 134.979 621.691 134.979 621.849C134.979 622.06 135.027 622.253 135.123 622.428C135.221 622.602 135.353 622.742 135.519 622.846C135.687 622.951 135.878 623.003 136.091 623.003Z"/>
<path d="M145.551 624.096C145.048 624.096 144.615 623.989 144.253 623.776C143.893 623.561 143.616 623.263 143.422 622.881C143.23 622.5 143.134 622.061 143.134 621.565C143.134 621.062 143.231 620.621 143.425 620.241C143.621 619.86 143.899 619.563 144.259 619.35C144.619 619.135 145.048 619.027 145.544 619.027C145.972 619.027 146.347 619.105 146.669 619.26C146.991 619.416 147.245 619.634 147.433 619.915C147.62 620.197 147.724 620.527 147.743 620.906H146.458C146.422 620.661 146.326 620.464 146.171 620.315C146.017 620.164 145.816 620.088 145.566 620.088C145.356 620.088 145.171 620.146 145.014 620.261C144.858 620.374 144.737 620.539 144.649 620.756C144.562 620.973 144.518 621.236 144.518 621.545C144.518 621.859 144.561 622.125 144.646 622.344C144.733 622.564 144.856 622.731 145.014 622.846C145.171 622.961 145.356 623.019 145.566 623.019C145.722 623.019 145.862 622.987 145.985 622.923C146.111 622.859 146.214 622.766 146.295 622.645C146.378 622.521 146.433 622.373 146.458 622.201H147.743C147.722 622.576 147.619 622.906 147.436 623.191C147.255 623.475 147.005 623.696 146.685 623.856C146.365 624.016 145.987 624.096 145.551 624.096Z"/>
<path d="M149.47 624V619.091H150.767V619.957H150.825C150.927 619.669 151.098 619.442 151.336 619.276C151.575 619.11 151.86 619.027 152.193 619.027C152.529 619.027 152.816 619.111 153.052 619.279C153.289 619.446 153.447 619.671 153.525 619.957H153.577C153.677 619.676 153.858 619.451 154.12 619.283C154.384 619.112 154.696 619.027 155.056 619.027C155.514 619.027 155.886 619.173 156.172 619.465C156.459 619.755 156.603 620.166 156.603 620.698V624H155.245V620.967C155.245 620.694 155.172 620.49 155.028 620.353C154.883 620.217 154.702 620.149 154.484 620.149C154.237 620.149 154.044 620.228 153.906 620.385C153.767 620.541 153.698 620.746 153.698 621.002V624H152.378V620.938C152.378 620.697 152.309 620.506 152.17 620.363C152.034 620.22 151.854 620.149 151.63 620.149C151.479 620.149 151.343 620.187 151.221 620.264C151.102 620.338 151.007 620.444 150.937 620.58C150.866 620.714 150.831 620.872 150.831 621.053V624H149.47Z"/>
</mask>
<path d="M124.378 617.455V624H122.994V618.768H122.956L121.457 619.708V618.48L123.077 617.455H124.378Z" fill="black"/>
<path d="M129.157 617.365C129.494 617.365 129.818 617.421 130.129 617.534C130.442 617.647 130.721 617.827 130.966 618.075C131.213 618.322 131.408 618.65 131.551 619.059C131.696 619.466 131.769 619.966 131.771 620.558C131.771 621.114 131.709 621.61 131.583 622.047C131.459 622.482 131.281 622.852 131.049 623.156C130.817 623.461 130.537 623.693 130.209 623.853C129.88 624.011 129.514 624.089 129.109 624.089C128.672 624.089 128.287 624.005 127.952 623.837C127.618 623.667 127.348 623.435 127.144 623.143C126.941 622.849 126.819 622.519 126.776 622.153H128.141C128.194 622.391 128.306 622.577 128.476 622.709C128.647 622.839 128.858 622.904 129.109 622.904C129.535 622.904 129.859 622.718 130.081 622.348C130.302 621.975 130.414 621.464 130.416 620.817H130.372C130.274 621.008 130.141 621.174 129.975 621.312C129.809 621.448 129.618 621.554 129.403 621.629C129.19 621.703 128.963 621.74 128.722 621.74C128.337 621.74 127.993 621.65 127.69 621.469C127.388 621.288 127.149 621.038 126.974 620.721C126.8 620.403 126.712 620.041 126.712 619.634C126.71 619.195 126.811 618.804 127.016 618.461C127.22 618.118 127.506 617.85 127.872 617.656C128.241 617.46 128.669 617.363 129.157 617.365ZM129.167 618.452C128.952 618.452 128.76 618.503 128.591 618.605C128.425 618.707 128.293 618.845 128.195 619.017C128.099 619.19 128.052 619.383 128.054 619.596C128.054 619.811 128.101 620.005 128.195 620.178C128.291 620.348 128.421 620.484 128.585 620.587C128.751 620.687 128.941 620.737 129.154 620.737C129.314 620.737 129.462 620.707 129.598 620.647C129.735 620.588 129.853 620.506 129.953 620.401C130.055 620.295 130.135 620.172 130.193 620.034C130.25 619.895 130.279 619.748 130.279 619.593C130.277 619.386 130.228 619.196 130.132 619.024C130.036 618.851 129.904 618.713 129.736 618.608C129.567 618.504 129.378 618.452 129.167 618.452Z" fill="black"/>
<path d="M136.097 624.089C135.761 624.087 135.436 624.031 135.123 623.92C134.811 623.809 134.532 623.629 134.285 623.38C134.038 623.131 133.842 622.8 133.697 622.389C133.554 621.978 133.483 621.473 133.483 620.874C133.485 620.325 133.548 619.833 133.672 619.401C133.797 618.966 133.976 618.598 134.208 618.295C134.443 617.993 134.723 617.762 135.049 617.605C135.375 617.445 135.74 617.365 136.145 617.365C136.582 617.365 136.968 617.45 137.302 617.621C137.637 617.789 137.905 618.018 138.108 618.308C138.312 618.598 138.436 618.923 138.478 619.283H137.114C137.06 619.055 136.949 618.876 136.778 618.746C136.608 618.616 136.397 618.551 136.145 618.551C135.719 618.551 135.395 618.736 135.174 619.107C134.954 619.478 134.842 619.982 134.838 620.619H134.883C134.981 620.425 135.113 620.26 135.279 620.123C135.447 619.985 135.638 619.879 135.851 619.807C136.066 619.732 136.293 619.695 136.532 619.695C136.92 619.695 137.265 619.787 137.568 619.97C137.87 620.151 138.109 620.4 138.283 620.718C138.458 621.035 138.545 621.398 138.545 621.807C138.545 622.251 138.442 622.645 138.235 622.99C138.031 623.335 137.744 623.606 137.376 623.802C137.009 623.996 136.583 624.092 136.097 624.089ZM136.091 623.003C136.304 623.003 136.495 622.952 136.663 622.849C136.831 622.747 136.963 622.609 137.059 622.434C137.155 622.259 137.203 622.063 137.203 621.846C137.203 621.629 137.155 621.434 137.059 621.261C136.966 621.088 136.836 620.951 136.669 620.849C136.503 620.746 136.314 620.695 136.101 620.695C135.941 620.695 135.793 620.725 135.656 620.785C135.522 620.844 135.404 620.928 135.302 621.034C135.201 621.141 135.123 621.264 135.065 621.405C135.007 621.543 134.979 621.691 134.979 621.849C134.979 622.06 135.027 622.253 135.123 622.428C135.221 622.602 135.353 622.742 135.519 622.846C135.687 622.951 135.878 623.003 136.091 623.003Z" fill="black"/>
<path d="M145.551 624.096C145.048 624.096 144.615 623.989 144.253 623.776C143.893 623.561 143.616 623.263 143.422 622.881C143.23 622.5 143.134 622.061 143.134 621.565C143.134 621.062 143.231 620.621 143.425 620.241C143.621 619.86 143.899 619.563 144.259 619.35C144.619 619.135 145.048 619.027 145.544 619.027C145.972 619.027 146.347 619.105 146.669 619.26C146.991 619.416 147.245 619.634 147.433 619.915C147.62 620.197 147.724 620.527 147.743 620.906H146.458C146.422 620.661 146.326 620.464 146.171 620.315C146.017 620.164 145.816 620.088 145.566 620.088C145.356 620.088 145.171 620.146 145.014 620.261C144.858 620.374 144.737 620.539 144.649 620.756C144.562 620.973 144.518 621.236 144.518 621.545C144.518 621.859 144.561 622.125 144.646 622.344C144.733 622.564 144.856 622.731 145.014 622.846C145.171 622.961 145.356 623.019 145.566 623.019C145.722 623.019 145.862 622.987 145.985 622.923C146.111 622.859 146.214 622.766 146.295 622.645C146.378 622.521 146.433 622.373 146.458 622.201H147.743C147.722 622.576 147.619 622.906 147.436 623.191C147.255 623.475 147.005 623.696 146.685 623.856C146.365 624.016 145.987 624.096 145.551 624.096Z" fill="black"/>
<path d="M149.47 624V619.091H150.767V619.957H150.825C150.927 619.669 151.098 619.442 151.336 619.276C151.575 619.11 151.86 619.027 152.193 619.027C152.529 619.027 152.816 619.111 153.052 619.279C153.289 619.446 153.447 619.671 153.525 619.957H153.577C153.677 619.676 153.858 619.451 154.12 619.283C154.384 619.112 154.696 619.027 155.056 619.027C155.514 619.027 155.886 619.173 156.172 619.465C156.459 619.755 156.603 620.166 156.603 620.698V624H155.245V620.967C155.245 620.694 155.172 620.49 155.028 620.353C154.883 620.217 154.702 620.149 154.484 620.149C154.237 620.149 154.044 620.228 153.906 620.385C153.767 620.541 153.698 620.746 153.698 621.002V624H152.378V620.938C152.378 620.697 152.309 620.506 152.17 620.363C152.034 620.22 151.854 620.149 151.63 620.149C151.479 620.149 151.343 620.187 151.221 620.264C151.102 620.338 151.007 620.444 150.937 620.58C150.866 620.714 150.831 620.872 150.831 621.053V624H149.47Z" fill="black"/>
<path d="M124.378 617.455V624H122.994V618.768H122.956L121.457 619.708V618.48L123.077 617.455H124.378Z" stroke="#FBF6F1" stroke-width="10" mask="url(#path-62-outside-4_2702_84277)"/>
<path d="M129.157 617.365C129.494 617.365 129.818 617.421 130.129 617.534C130.442 617.647 130.721 617.827 130.966 618.075C131.213 618.322 131.408 618.65 131.551 619.059C131.696 619.466 131.769 619.966 131.771 620.558C131.771 621.114 131.709 621.61 131.583 622.047C131.459 622.482 131.281 622.852 131.049 623.156C130.817 623.461 130.537 623.693 130.209 623.853C129.88 624.011 129.514 624.089 129.109 624.089C128.672 624.089 128.287 624.005 127.952 623.837C127.618 623.667 127.348 623.435 127.144 623.143C126.941 622.849 126.819 622.519 126.776 622.153H128.141C128.194 622.391 128.306 622.577 128.476 622.709C128.647 622.839 128.858 622.904 129.109 622.904C129.535 622.904 129.859 622.718 130.081 622.348C130.302 621.975 130.414 621.464 130.416 620.817H130.372C130.274 621.008 130.141 621.174 129.975 621.312C129.809 621.448 129.618 621.554 129.403 621.629C129.19 621.703 128.963 621.74 128.722 621.74C128.337 621.74 127.993 621.65 127.69 621.469C127.388 621.288 127.149 621.038 126.974 620.721C126.8 620.403 126.712 620.041 126.712 619.634C126.71 619.195 126.811 618.804 127.016 618.461C127.22 618.118 127.506 617.85 127.872 617.656C128.241 617.46 128.669 617.363 129.157 617.365ZM129.167 618.452C128.952 618.452 128.76 618.503 128.591 618.605C128.425 618.707 128.293 618.845 128.195 619.017C128.099 619.19 128.052 619.383 128.054 619.596C128.054 619.811 128.101 620.005 128.195 620.178C128.291 620.348 128.421 620.484 128.585 620.587C128.751 620.687 128.941 620.737 129.154 620.737C129.314 620.737 129.462 620.707 129.598 620.647C129.735 620.588 129.853 620.506 129.953 620.401C130.055 620.295 130.135 620.172 130.193 620.034C130.25 619.895 130.279 619.748 130.279 619.593C130.277 619.386 130.228 619.196 130.132 619.024C130.036 618.851 129.904 618.713 129.736 618.608C129.567 618.504 129.378 618.452 129.167 618.452Z" stroke="#FBF6F1" stroke-width="10" mask="url(#path-62-outside-4_2702_84277)"/>
<path d="M136.097 624.089C135.761 624.087 135.436 624.031 135.123 623.92C134.811 623.809 134.532 623.629 134.285 623.38C134.038 623.131 133.842 622.8 133.697 622.389C133.554 621.978 133.483 621.473 133.483 620.874C133.485 620.325 133.548 619.833 133.672 619.401C133.797 618.966 133.976 618.598 134.208 618.295C134.443 617.993 134.723 617.762 135.049 617.605C135.375 617.445 135.74 617.365 136.145 617.365C136.582 617.365 136.968 617.45 137.302 617.621C137.637 617.789 137.905 618.018 138.108 618.308C138.312 618.598 138.436 618.923 138.478 619.283H137.114C137.06 619.055 136.949 618.876 136.778 618.746C136.608 618.616 136.397 618.551 136.145 618.551C135.719 618.551 135.395 618.736 135.174 619.107C134.954 619.478 134.842 619.982 134.838 620.619H134.883C134.981 620.425 135.113 620.26 135.279 620.123C135.447 619.985 135.638 619.879 135.851 619.807C136.066 619.732 136.293 619.695 136.532 619.695C136.92 619.695 137.265 619.787 137.568 619.97C137.87 620.151 138.109 620.4 138.283 620.718C138.458 621.035 138.545 621.398 138.545 621.807C138.545 622.251 138.442 622.645 138.235 622.99C138.031 623.335 137.744 623.606 137.376 623.802C137.009 623.996 136.583 624.092 136.097 624.089ZM136.091 623.003C136.304 623.003 136.495 622.952 136.663 622.849C136.831 622.747 136.963 622.609 137.059 622.434C137.155 622.259 137.203 622.063 137.203 621.846C137.203 621.629 137.155 621.434 137.059 621.261C136.966 621.088 136.836 620.951 136.669 620.849C136.503 620.746 136.314 620.695 136.101 620.695C135.941 620.695 135.793 620.725 135.656 620.785C135.522 620.844 135.404 620.928 135.302 621.034C135.201 621.141 135.123 621.264 135.065 621.405C135.007 621.543 134.979 621.691 134.979 621.849C134.979 622.06 135.027 622.253 135.123 622.428C135.221 622.602 135.353 622.742 135.519 622.846C135.687 622.951 135.878 623.003 136.091 623.003Z" stroke="#FBF6F1" stroke-width="10" mask="url(#path-62-outside-4_2702_84277)"/>
<path d="M145.551 624.096C145.048 624.096 144.615 623.989 144.253 623.776C143.893 623.561 143.616 623.263 143.422 622.881C143.23 622.5 143.134 622.061 143.134 621.565C143.134 621.062 143.231 620.621 143.425 620.241C143.621 619.86 143.899 619.563 144.259 619.35C144.619 619.135 145.048 619.027 145.544 619.027C145.972 619.027 146.347 619.105 146.669 619.26C146.991 619.416 147.245 619.634 147.433 619.915C147.62 620.197 147.724 620.527 147.743 620.906H146.458C146.422 620.661 146.326 620.464 146.171 620.315C146.017 620.164 145.816 620.088 145.566 620.088C145.356 620.088 145.171 620.146 145.014 620.261C144.858 620.374 144.737 620.539 144.649 620.756C144.562 620.973 144.518 621.236 144.518 621.545C144.518 621.859 144.561 622.125 144.646 622.344C144.733 622.564 144.856 622.731 145.014 622.846C145.171 622.961 145.356 623.019 145.566 623.019C145.722 623.019 145.862 622.987 145.985 622.923C146.111 622.859 146.214 622.766 146.295 622.645C146.378 622.521 146.433 622.373 146.458 622.201H147.743C147.722 622.576 147.619 622.906 147.436 623.191C147.255 623.475 147.005 623.696 146.685 623.856C146.365 624.016 145.987 624.096 145.551 624.096Z" stroke="#FBF6F1" stroke-width="10" mask="url(#path-62-outside-4_2702_84277)"/>
<path d="M149.47 624V619.091H150.767V619.957H150.825C150.927 619.669 151.098 619.442 151.336 619.276C151.575 619.11 151.86 619.027 152.193 619.027C152.529 619.027 152.816 619.111 153.052 619.279C153.289 619.446 153.447 619.671 153.525 619.957H153.577C153.677 619.676 153.858 619.451 154.12 619.283C154.384 619.112 154.696 619.027 155.056 619.027C155.514 619.027 155.886 619.173 156.172 619.465C156.459 619.755 156.603 620.166 156.603 620.698V624H155.245V620.967C155.245 620.694 155.172 620.49 155.028 620.353C154.883 620.217 154.702 620.149 154.484 620.149C154.237 620.149 154.044 620.228 153.906 620.385C153.767 620.541 153.698 620.746 153.698 621.002V624H152.378V620.938C152.378 620.697 152.309 620.506 152.17 620.363C152.034 620.22 151.854 620.149 151.63 620.149C151.479 620.149 151.343 620.187 151.221 620.264C151.102 620.338 151.007 620.444 150.937 620.58C150.866 620.714 150.831 620.872 150.831 621.053V624H149.47Z" stroke="#FBF6F1" stroke-width="10" mask="url(#path-62-outside-4_2702_84277)"/>
</svg>
